<svg width="240" height="58" viewBox="0 0 240 58" fill="none" xmlns="http://www.w3.org/2000/svg">
<path d="M72.4678 39.0249H73.5499L77.5785 45.2285H77.5999V39.0249H78.5642V46.675H77.4499L73.4535 40.5356H73.4321V46.675H72.4678V39.0249Z" fill="#1F2A37"/>
<path d="M83.2751 43.8142C83.1894 43.8785 83.0822 43.9285 82.9537 43.9642C82.8251 43.9999 82.6894 44.0321 82.5465 44.0607C82.4037 44.0821 82.2501 44.1035 82.0858 44.1249C81.9287 44.1392 81.7751 44.1607 81.6251 44.1892C81.4751 44.2178 81.3322 44.2535 81.1965 44.2964C81.0608 44.3392 80.943 44.3999 80.843 44.4785C80.743 44.5499 80.6608 44.6428 80.5965 44.7571C80.5394 44.8714 80.5108 45.0142 80.5108 45.1857C80.5108 45.3357 80.5394 45.4642 80.5965 45.5714C80.6608 45.6714 80.7394 45.7535 80.8322 45.8178C80.9322 45.8821 81.0465 45.9285 81.1751 45.9571C81.3037 45.9857 81.4394 45.9999 81.5822 45.9999C81.8822 45.9999 82.1394 45.9607 82.3537 45.8821C82.568 45.7964 82.743 45.6928 82.8787 45.5714C83.0144 45.4428 83.1144 45.3071 83.1787 45.1642C83.243 45.0142 83.2751 44.8749 83.2751 44.7464V43.8142ZM84.7537 46.6535C84.5894 46.7535 84.3715 46.8035 84.1001 46.8035C83.8644 46.8035 83.6751 46.7357 83.5323 46.6C83.3965 46.4642 83.3287 46.2464 83.3287 45.9464C83.0787 46.2464 82.7858 46.4642 82.4501 46.6C82.1215 46.7357 81.7644 46.8035 81.3787 46.8035C81.1287 46.8035 80.8894 46.775 80.6608 46.7178C80.4394 46.6607 80.2465 46.5714 80.0822 46.45C79.9179 46.3214 79.7858 46.1607 79.6858 45.9678C79.5929 45.7678 79.5465 45.5285 79.5465 45.2499C79.5465 44.9357 79.6001 44.6785 79.7072 44.4785C79.8144 44.2785 79.9537 44.1178 80.1251 43.9964C80.3037 43.8749 80.5037 43.7821 80.7251 43.7178C80.9537 43.6464 81.1858 43.5892 81.4215 43.5464C81.6715 43.4964 81.9072 43.4607 82.1287 43.4392C82.3572 43.4107 82.5572 43.3749 82.7287 43.3321C82.9001 43.2821 83.0358 43.2142 83.1358 43.1285C83.2358 43.0356 83.2858 42.9035 83.2858 42.7321C83.2858 42.5321 83.2465 42.3714 83.168 42.2499C83.0965 42.1285 83.0001 42.0356 82.8787 41.9714C82.7644 41.9071 82.6322 41.8642 82.4822 41.8428C82.3394 41.8214 82.1965 41.8106 82.0537 41.8106C81.668 41.8106 81.3465 41.8856 81.0894 42.0356C80.8322 42.1785 80.693 42.4535 80.6715 42.8606H79.7608C79.7751 42.5178 79.8465 42.2285 79.9751 41.9928C80.1037 41.7571 80.2751 41.5678 80.4894 41.4249C80.7037 41.2749 80.9501 41.1678 81.2287 41.1035C81.5072 41.0392 81.8001 41.0071 82.1072 41.0071C82.3572 41.0071 82.6037 41.0249 82.8465 41.0606C83.0965 41.0964 83.3215 41.1714 83.5215 41.2856C83.7215 41.3928 83.8823 41.5464 84.0037 41.7464C84.1251 41.9464 84.1858 42.2071 84.1858 42.5285V45.3785C84.1858 45.5928 84.1965 45.7499 84.218 45.8499C84.2465 45.9499 84.3323 45.9999 84.4751 45.9999C84.5608 45.9999 84.6537 45.9821 84.7537 45.9464V46.6535Z" fill="#1F2A37"/>
<path d="M86.6513 41.1356H87.7549V41.9392H86.6513V45.3785C86.6513 45.4857 86.6584 45.5714 86.6727 45.6357C86.6942 45.6999 86.7299 45.7499 86.7799 45.7857C86.8299 45.8214 86.8977 45.8464 86.9834 45.8607C87.0763 45.8678 87.1942 45.8714 87.337 45.8714H87.7549V46.675H87.0584C86.8227 46.675 86.6192 46.6607 86.4477 46.6321C86.2834 46.5964 86.1477 46.5357 86.0406 46.45C85.9406 46.3642 85.8656 46.2428 85.8156 46.0857C85.7656 45.9285 85.7406 45.7214 85.7406 45.4642V41.9392H84.7977V41.1356H85.7406V39.4749H86.6513V41.1356Z" fill="#1F2A37"/>
<path d="M88.6059 41.1356H89.5166V46.675H88.6059V41.1356ZM89.5166 40.1392H88.6059V39.0249H89.5166V40.1392Z" fill="#1F2A37"/>
<path d="M90.4132 43.9107C90.4132 43.5035 90.4703 43.1249 90.5846 42.7749C90.6989 42.4178 90.8703 42.1106 91.0989 41.8535C91.3275 41.5892 91.6061 41.3821 91.9346 41.2321C92.2703 41.0821 92.6596 41.0071 93.1025 41.0071C93.5382 41.0071 93.9239 41.0821 94.2596 41.2321C94.5954 41.3821 94.8775 41.5892 95.1061 41.8535C95.3347 42.1106 95.5061 42.4178 95.6204 42.7749C95.7347 43.1249 95.7918 43.5035 95.7918 43.9107C95.7918 44.3178 95.7347 44.6964 95.6204 45.0464C95.5061 45.3964 95.3347 45.7035 95.1061 45.9678C94.8775 46.225 94.5954 46.4285 94.2596 46.5785C93.9239 46.7285 93.5382 46.8035 93.1025 46.8035C92.6596 46.8035 92.2703 46.7285 91.9346 46.5785C91.6061 46.4285 91.3275 46.225 91.0989 45.9678C90.8703 45.7035 90.6989 45.3964 90.5846 45.0464C90.4703 44.6964 90.4132 44.3178 90.4132 43.9107ZM91.3775 43.9107C91.3775 44.2464 91.4203 44.5464 91.5061 44.8107C91.5989 45.0678 91.7239 45.2857 91.8811 45.4642C92.0382 45.6357 92.2204 45.7678 92.4275 45.8607C92.6418 45.9535 92.8668 45.9999 93.1025 45.9999C93.3382 45.9999 93.5596 45.9535 93.7668 45.8607C93.9811 45.7678 94.1668 45.6357 94.3239 45.4642C94.4811 45.2857 94.6025 45.0678 94.6882 44.8107C94.7811 44.5464 94.8275 44.2464 94.8275 43.9107C94.8275 43.5749 94.7811 43.2785 94.6882 43.0214C94.6025 42.7571 94.4811 42.5356 94.3239 42.3571C94.1668 42.1785 93.9811 42.0428 93.7668 41.9499C93.5596 41.8571 93.3382 41.8106 93.1025 41.8106C92.8668 41.8106 92.6418 41.8571 92.4275 41.9499C92.2204 42.0428 92.0382 42.1785 91.8811 42.3571C91.7239 42.5356 91.5989 42.7571 91.5061 43.0214C91.4203 43.2785 91.3775 43.5749 91.3775 43.9107Z" fill="#1F2A37"/>
<path d="M96.6513 41.1356H97.5084V42.0142H97.5299C97.7227 41.6714 97.9691 41.4178 98.2691 41.2535C98.5763 41.0892 98.9299 41.0071 99.3299 41.0071C99.6942 41.0071 99.9977 41.0571 100.241 41.1571C100.483 41.2571 100.68 41.3964 100.83 41.5749C100.98 41.7535 101.083 41.9678 101.141 42.2178C101.205 42.4606 101.237 42.7321 101.237 43.0321V46.675H100.326V42.9249C100.326 42.5821 100.226 42.3106 100.026 42.1106C99.8263 41.9106 99.5513 41.8106 99.2013 41.8106C98.9227 41.8106 98.6799 41.8535 98.4727 41.9392C98.2727 42.0249 98.1049 42.1464 97.9691 42.3035C97.8334 42.4606 97.7299 42.6464 97.6584 42.8606C97.5941 43.0678 97.562 43.2964 97.562 43.5464V46.675H96.6513V41.1356Z" fill="#1F2A37"/>
<path d="M105.819 43.8142C105.733 43.8785 105.626 43.9285 105.498 43.9642C105.369 43.9999 105.233 44.0321 105.091 44.0607C104.948 44.0821 104.794 44.1035 104.63 44.1249C104.473 44.1392 104.319 44.1607 104.169 44.1892C104.019 44.2178 103.876 44.2535 103.741 44.2964C103.605 44.3392 103.487 44.3999 103.387 44.4785C103.287 44.5499 103.205 44.6428 103.141 44.7571C103.083 44.8714 103.055 45.0142 103.055 45.1857C103.055 45.3357 103.083 45.4642 103.141 45.5714C103.205 45.6714 103.283 45.7535 103.376 45.8178C103.476 45.8821 103.591 45.9285 103.719 45.9571C103.848 45.9857 103.983 45.9999 104.126 45.9999C104.426 45.9999 104.683 45.9607 104.898 45.8821C105.112 45.7964 105.287 45.6928 105.423 45.5714C105.558 45.4428 105.658 45.3071 105.723 45.1642C105.787 45.0142 105.819 44.8749 105.819 44.7464V43.8142ZM107.298 46.6535C107.133 46.7535 106.916 46.8035 106.644 46.8035C106.408 46.8035 106.219 46.7357 106.076 46.6C105.941 46.4642 105.873 46.2464 105.873 45.9464C105.623 46.2464 105.33 46.4642 104.994 46.6C104.666 46.7357 104.308 46.8035 103.923 46.8035C103.673 46.8035 103.433 46.775 103.205 46.7178C102.983 46.6607 102.791 46.5714 102.626 46.45C102.462 46.3214 102.33 46.1607 102.23 45.9678C102.137 45.7678 102.091 45.5285 102.091 45.2499C102.091 44.9357 102.144 44.6785 102.251 44.4785C102.358 44.2785 102.498 44.1178 102.669 43.9964C102.848 43.8749 103.048 43.7821 103.269 43.7178C103.498 43.6464 103.73 43.5892 103.966 43.5464C104.216 43.4964 104.451 43.4607 104.673 43.4392C104.901 43.4107 105.101 43.3749 105.273 43.3321C105.444 43.2821 105.58 43.2142 105.68 43.1285C105.78 43.0356 105.83 42.9035 105.83 42.7321C105.83 42.5321 105.791 42.3714 105.712 42.2499C105.641 42.1285 105.544 42.0356 105.423 41.9714C105.308 41.9071 105.176 41.8642 105.026 41.8428C104.883 41.8214 104.741 41.8106 104.598 41.8106C104.212 41.8106 103.891 41.8856 103.633 42.0356C103.376 42.1785 103.237 42.4535 103.216 42.8606H102.305C102.319 42.5178 102.391 42.2285 102.519 41.9928C102.648 41.7571 102.819 41.5678 103.033 41.4249C103.248 41.2749 103.494 41.1678 103.773 41.1035C104.051 41.0392 104.344 41.0071 104.651 41.0071C104.901 41.0071 105.148 41.0249 105.391 41.0606C105.641 41.0964 105.866 41.1714 106.066 41.2856C106.266 41.3928 106.426 41.5464 106.548 41.7464C106.669 41.9464 106.73 42.2071 106.73 42.5285V45.3785C106.73 45.5928 106.741 45.7499 106.762 45.8499C106.791 45.9499 106.876 45.9999 107.019 45.9999C107.105 45.9999 107.198 45.9821 107.298 45.9464V46.6535Z" fill="#1F2A37"/>
<path d="M107.985 39.0249H108.895V46.675H107.985V39.0249Z" fill="#1F2A37"/>
<path d="M113.01 39.0249H115.635C116.813 39.0249 117.72 39.3249 118.356 39.9249C118.992 40.5249 119.31 41.4392 119.31 42.6678C119.31 43.3107 119.238 43.8821 119.095 44.3821C118.953 44.8749 118.731 45.2928 118.431 45.6357C118.131 45.9714 117.749 46.2285 117.285 46.4071C116.82 46.5857 116.27 46.675 115.635 46.675H113.01V39.0249ZM114.028 45.8178H115.72C115.835 45.8178 115.978 45.8107 116.149 45.7964C116.32 45.7749 116.503 45.7321 116.695 45.6678C116.888 45.5964 117.078 45.4964 117.263 45.3678C117.456 45.2392 117.628 45.0642 117.778 44.8428C117.928 44.6214 118.049 44.3464 118.142 44.0178C118.242 43.6821 118.292 43.2785 118.292 42.8071C118.292 42.3499 118.245 41.9428 118.153 41.5856C118.067 41.2214 117.92 40.9142 117.713 40.6642C117.513 40.4142 117.253 40.2214 116.931 40.0856C116.61 39.9499 116.213 39.8821 115.742 39.8821H114.028V45.8178Z" fill="#1F2A37"/>
<path d="M123.618 43.8142C123.532 43.8785 123.425 43.9285 123.296 43.9642C123.168 43.9999 123.032 44.0321 122.889 44.0607C122.746 44.0821 122.593 44.1035 122.429 44.1249C122.271 44.1392 122.118 44.1607 121.968 44.1892C121.818 44.2178 121.675 44.2535 121.539 44.2964C121.404 44.3392 121.286 44.3999 121.186 44.4785C121.086 44.5499 121.004 44.6428 120.939 44.7571C120.882 44.8714 120.854 45.0142 120.854 45.1857C120.854 45.3357 120.882 45.4642 120.939 45.5714C121.004 45.6714 121.082 45.7535 121.175 45.8178C121.275 45.8821 121.389 45.9285 121.518 45.9571C121.646 45.9857 121.782 45.9999 121.925 45.9999C122.225 45.9999 122.482 45.9607 122.696 45.8821C122.911 45.7964 123.086 45.6928 123.221 45.5714C123.357 45.4428 123.457 45.3071 123.521 45.1642C123.586 45.0142 123.618 44.8749 123.618 44.7464V43.8142ZM125.097 46.6535C124.932 46.7535 124.714 46.8035 124.443 46.8035C124.207 46.8035 124.018 46.7357 123.875 46.6C123.739 46.4642 123.671 46.2464 123.671 45.9464C123.421 46.2464 123.129 46.4642 122.793 46.6C122.464 46.7357 122.107 46.8035 121.721 46.8035C121.471 46.8035 121.232 46.775 121.004 46.7178C120.782 46.6607 120.589 46.5714 120.425 46.45C120.261 46.3214 120.129 46.1607 120.029 45.9678C119.936 45.7678 119.889 45.5285 119.889 45.2499C119.889 44.9357 119.943 44.6785 120.05 44.4785C120.157 44.2785 120.296 44.1178 120.468 43.9964C120.646 43.8749 120.846 43.7821 121.068 43.7178C121.296 43.6464 121.529 43.5892 121.764 43.5464C122.014 43.4964 122.25 43.4607 122.471 43.4392C122.7 43.4107 122.9 43.3749 123.071 43.3321C123.243 43.2821 123.379 43.2142 123.479 43.1285C123.579 43.0356 123.629 42.9035 123.629 42.7321C123.629 42.5321 123.589 42.3714 123.511 42.2499C123.439 42.1285 123.343 42.0356 123.221 41.9714C123.107 41.9071 122.975 41.8642 122.825 41.8428C122.682 41.8214 122.539 41.8106 122.396 41.8106C122.011 41.8106 121.689 41.8856 121.432 42.0356C121.175 42.1785 121.036 42.4535 121.014 42.8606H120.104C120.118 42.5178 120.189 42.2285 120.318 41.9928C120.446 41.7571 120.618 41.5678 120.832 41.4249C121.046 41.2749 121.293 41.1678 121.571 41.1035C121.85 41.0392 122.143 41.0071 122.45 41.0071C122.7 41.0071 122.946 41.0249 123.189 41.0606C123.439 41.0964 123.664 41.1714 123.864 41.2856C124.064 41.3928 124.225 41.5464 124.347 41.7464C124.468 41.9464 124.529 42.2071 124.529 42.5285V45.3785C124.529 45.5928 124.539 45.7499 124.561 45.8499C124.589 45.9499 124.675 45.9999 124.818 45.9999C124.904 45.9999 124.997 45.9821 125.097 45.9464V46.6535Z" fill="#1F2A37"/>
<path d="M126.994 41.1356H128.098V41.9392H126.994V45.3785C126.994 45.4857 127.001 45.5714 127.016 45.6357C127.037 45.6999 127.073 45.7499 127.123 45.7857C127.173 45.8214 127.241 45.8464 127.326 45.8607C127.419 45.8678 127.537 45.8714 127.68 45.8714H128.098V46.675H127.401C127.166 46.675 126.962 46.6607 126.791 46.6321C126.626 46.5964 126.491 46.5357 126.383 46.45C126.283 46.3642 126.208 46.2428 126.158 46.0857C126.108 45.9285 126.083 45.7214 126.083 45.4642V41.9392H125.141V41.1356H126.083V39.4749H126.994V41.1356Z" fill="#1F2A37"/>
<path d="M132.324 43.8142C132.238 43.8785 132.131 43.9285 132.002 43.9642C131.874 43.9999 131.738 44.0321 131.595 44.0607C131.452 44.0821 131.299 44.1035 131.134 44.1249C130.977 44.1392 130.824 44.1607 130.674 44.1892C130.524 44.2178 130.381 44.2535 130.245 44.2964C130.109 44.3392 129.992 44.3999 129.892 44.4785C129.792 44.5499 129.709 44.6428 129.645 44.7571C129.588 44.8714 129.559 45.0142 129.559 45.1857C129.559 45.3357 129.588 45.4642 129.645 45.5714C129.709 45.6714 129.788 45.7535 129.881 45.8178C129.981 45.8821 130.095 45.9285 130.224 45.9571C130.352 45.9857 130.488 45.9999 130.631 45.9999C130.931 45.9999 131.188 45.9607 131.402 45.8821C131.617 45.7964 131.792 45.6928 131.927 45.5714C132.063 45.4428 132.163 45.3071 132.227 45.1642C132.292 45.0142 132.324 44.8749 132.324 44.7464V43.8142ZM133.802 46.6535C133.638 46.7535 133.42 46.8035 133.149 46.8035C132.913 46.8035 132.724 46.7357 132.581 46.6C132.445 46.4642 132.377 46.2464 132.377 45.9464C132.127 46.2464 131.834 46.4642 131.499 46.6C131.17 46.7357 130.813 46.8035 130.427 46.8035C130.177 46.8035 129.938 46.775 129.709 46.7178C129.488 46.6607 129.295 46.5714 129.131 46.45C128.967 46.3214 128.834 46.1607 128.734 45.9678C128.642 45.7678 128.595 45.5285 128.595 45.2499C128.595 44.9357 128.649 44.6785 128.756 44.4785C128.863 44.2785 129.002 44.1178 129.174 43.9964C129.352 43.8749 129.552 43.7821 129.774 43.7178C130.002 43.6464 130.234 43.5892 130.47 43.5464C130.72 43.4964 130.956 43.4607 131.177 43.4392C131.406 43.4107 131.606 43.3749 131.777 43.3321C131.949 43.2821 132.084 43.2142 132.184 43.1285C132.284 43.0356 132.334 42.9035 132.334 42.7321C132.334 42.5321 132.295 42.3714 132.217 42.2499C132.145 42.1285 132.049 42.0356 131.927 41.9714C131.813 41.9071 131.681 41.8642 131.531 41.8428C131.388 41.8214 131.245 41.8106 131.102 41.8106C130.717 41.8106 130.395 41.8856 130.138 42.0356C129.881 42.1785 129.742 42.4535 129.72 42.8606H128.809C128.824 42.5178 128.895 42.2285 129.024 41.9928C129.152 41.7571 129.324 41.5678 129.538 41.4249C129.752 41.2749 129.999 41.1678 130.277 41.1035C130.556 41.0392 130.849 41.0071 131.156 41.0071C131.406 41.0071 131.652 41.0249 131.895 41.0606C132.145 41.0964 132.37 41.1714 132.57 41.2856C132.77 41.3928 132.931 41.5464 133.052 41.7464C133.174 41.9464 133.234 42.2071 133.234 42.5285V45.3785C133.234 45.5928 133.245 45.7499 133.267 45.8499C133.295 45.9499 133.381 45.9999 133.524 45.9999C133.609 45.9999 133.702 45.9821 133.802 45.9464V46.6535Z" fill="#1F2A37"/>
<path d="M143.075 45.7214C142.925 45.9214 142.753 46.0928 142.561 46.2357C142.375 46.3785 142.175 46.4964 141.961 46.5892C141.746 46.6821 141.525 46.75 141.296 46.7928C141.068 46.8357 140.843 46.8571 140.621 46.8571C140.05 46.8571 139.539 46.75 139.089 46.5357C138.639 46.3214 138.257 46.0357 137.943 45.6785C137.628 45.3214 137.389 44.9107 137.225 44.4464C137.061 43.9821 136.978 43.4999 136.978 42.9999C136.978 42.4428 137.053 41.9142 137.203 41.4142C137.361 40.9071 137.589 40.4642 137.889 40.0856C138.196 39.7071 138.575 39.4071 139.025 39.1856C139.482 38.9571 140.014 38.8428 140.621 38.8428C141.036 38.8428 141.425 38.8928 141.789 38.9928C142.161 39.0856 142.489 39.2356 142.775 39.4428C143.068 39.6499 143.311 39.9142 143.503 40.2356C143.703 40.5499 143.839 40.9321 143.911 41.3821H142.893C142.843 41.0964 142.75 40.8464 142.614 40.6321C142.478 40.4178 142.311 40.2428 142.111 40.1071C141.911 39.9713 141.682 39.8713 141.425 39.8071C141.175 39.7356 140.907 39.6999 140.621 39.6999C140.157 39.6999 139.757 39.7928 139.421 39.9785C139.093 40.1642 138.821 40.4106 138.607 40.7178C138.4 41.0178 138.246 41.3642 138.146 41.7571C138.046 42.1428 137.996 42.5392 137.996 42.9464C137.996 43.3464 138.053 43.7321 138.168 44.1035C138.282 44.4678 138.45 44.7928 138.671 45.0785C138.893 45.3571 139.164 45.5821 139.486 45.7535C139.814 45.9178 140.193 45.9999 140.621 45.9999C141.014 45.9999 141.364 45.9357 141.671 45.8071C141.986 45.6785 142.25 45.5035 142.464 45.2821C142.678 45.0535 142.836 44.7892 142.936 44.4892C143.043 44.1821 143.089 43.8535 143.075 43.5035H140.632V42.6464H143.986V46.675H143.343L143.075 45.7214Z" fill="#1F2A37"/>
<path d="M144.819 43.9107C144.819 43.5035 144.876 43.1249 144.99 42.7749C145.105 42.4178 145.276 42.1106 145.505 41.8535C145.733 41.5892 146.012 41.3821 146.34 41.2321C146.676 41.0821 147.065 41.0071 147.508 41.0071C147.944 41.0071 148.33 41.0821 148.665 41.2321C149.001 41.3821 149.283 41.5892 149.512 41.8535C149.74 42.1106 149.912 42.4178 150.026 42.7749C150.14 43.1249 150.198 43.5035 150.198 43.9107C150.198 44.3178 150.14 44.6964 150.026 45.0464C149.912 45.3964 149.74 45.7035 149.512 45.9678C149.283 46.225 149.001 46.4285 148.665 46.5785C148.33 46.7285 147.944 46.8035 147.508 46.8035C147.065 46.8035 146.676 46.7285 146.34 46.5785C146.012 46.4285 145.733 46.225 145.505 45.9678C145.276 45.7035 145.105 45.3964 144.99 45.0464C144.876 44.6964 144.819 44.3178 144.819 43.9107ZM145.783 43.9107C145.783 44.2464 145.826 44.5464 145.912 44.8107C146.005 45.0678 146.13 45.2857 146.287 45.4642C146.444 45.6357 146.626 45.7678 146.833 45.8607C147.048 45.9535 147.273 45.9999 147.508 45.9999C147.744 45.9999 147.965 45.9535 148.173 45.8607C148.387 45.7678 148.573 45.6357 148.73 45.4642C148.887 45.2857 149.008 45.0678 149.094 44.8107C149.187 44.5464 149.233 44.2464 149.233 43.9107C149.233 43.5749 149.187 43.2785 149.094 43.0214C149.008 42.7571 148.887 42.5356 148.73 42.3571C148.573 42.1785 148.387 42.0428 148.173 41.9499C147.965 41.8571 147.744 41.8106 147.508 41.8106C147.273 41.8106 147.048 41.8571 146.833 41.9499C146.626 42.0428 146.444 42.1785 146.287 42.3571C146.13 42.5356 146.005 42.7571 145.912 43.0214C145.826 43.2785 145.783 43.5749 145.783 43.9107Z" fill="#1F2A37"/>
<path d="M153.554 46.675H152.579L150.521 41.1356H151.539L153.093 45.7535H153.114L154.625 41.1356H155.579L153.554 46.675Z" fill="#1F2A37"/>
<path d="M160.925 44.9178C160.804 45.5321 160.536 45.9999 160.121 46.3214C159.707 46.6428 159.186 46.8035 158.557 46.8035C158.114 46.8035 157.729 46.7321 157.4 46.5892C157.079 46.4392 156.807 46.2357 156.586 45.9785C156.364 45.7214 156.196 45.4142 156.082 45.0571C155.975 44.6999 155.914 44.3107 155.9 43.8892C155.9 43.4749 155.964 43.0928 156.093 42.7428C156.221 42.3856 156.4 42.0785 156.629 41.8214C156.864 41.5642 157.139 41.3642 157.454 41.2214C157.775 41.0785 158.125 41.0071 158.504 41.0071C158.996 41.0071 159.404 41.1106 159.725 41.3178C160.054 41.5178 160.314 41.7749 160.507 42.0892C160.707 42.4035 160.843 42.7464 160.914 43.1178C160.993 43.4892 161.025 43.8428 161.011 44.1785H156.864C156.857 44.4214 156.886 44.6535 156.95 44.8749C157.014 45.0892 157.118 45.2821 157.261 45.4535C157.404 45.6178 157.586 45.7499 157.807 45.8499C158.029 45.9499 158.289 45.9999 158.589 45.9999C158.968 45.9999 159.282 45.9107 159.532 45.7321C159.782 45.5535 159.946 45.2821 160.025 44.9178H160.925ZM160.046 43.3749C160.032 43.1607 159.982 42.9571 159.896 42.7642C159.818 42.5714 159.707 42.4071 159.564 42.2714C159.429 42.1285 159.264 42.0178 159.071 41.9392C158.879 41.8535 158.671 41.8106 158.45 41.8106C158.214 41.8106 158 41.8535 157.807 41.9392C157.621 42.0178 157.461 42.1285 157.325 42.2714C157.189 42.4142 157.082 42.5821 157.004 42.7749C156.925 42.9606 156.879 43.1607 156.864 43.3749H160.046Z" fill="#1F2A37"/>
<path d="M161.708 41.1356H162.565V42.3035H162.587C162.808 41.8535 163.08 41.5214 163.401 41.3071C163.723 41.0928 164.13 40.9928 164.623 41.0071V41.9714C164.258 41.9714 163.948 42.0214 163.69 42.1214C163.433 42.2214 163.226 42.3678 163.069 42.5606C162.912 42.7535 162.798 42.9892 162.726 43.2678C162.655 43.5464 162.619 43.8607 162.619 44.2107V46.675H161.708V41.1356Z" fill="#1F2A37"/>
<path d="M165.282 41.1356H166.14V42.0142H166.161C166.354 41.6714 166.6 41.4178 166.9 41.2535C167.207 41.0892 167.561 41.0071 167.961 41.0071C168.325 41.0071 168.629 41.0571 168.872 41.1571C169.115 41.2571 169.311 41.3964 169.461 41.5749C169.611 41.7535 169.715 41.9678 169.772 42.2178C169.836 42.4606 169.868 42.7321 169.868 43.0321V46.675H168.957V42.9249C168.957 42.5821 168.857 42.3106 168.657 42.1106C168.457 41.9106 168.182 41.8106 167.832 41.8106C167.554 41.8106 167.311 41.8535 167.104 41.9392C166.904 42.0249 166.736 42.1464 166.6 42.3035C166.465 42.4606 166.361 42.6464 166.29 42.8606C166.225 43.0678 166.193 43.2964 166.193 43.5464V46.675H165.282V41.1356Z" fill="#1F2A37"/>
<path d="M174.45 43.8142C174.365 43.8785 174.257 43.9285 174.129 43.9642C174 43.9999 173.865 44.0321 173.722 44.0607C173.579 44.0821 173.425 44.1035 173.261 44.1249C173.104 44.1392 172.95 44.1607 172.8 44.1892C172.65 44.2178 172.507 44.2535 172.372 44.2964C172.236 44.3392 172.118 44.3999 172.018 44.4785C171.918 44.5499 171.836 44.6428 171.772 44.7571C171.715 44.8714 171.686 45.0142 171.686 45.1857C171.686 45.3357 171.715 45.4642 171.772 45.5714C171.836 45.6714 171.915 45.7535 172.007 45.8178C172.107 45.8821 172.222 45.9285 172.35 45.9571C172.479 45.9857 172.615 45.9999 172.757 45.9999C173.057 45.9999 173.315 45.9607 173.529 45.8821C173.743 45.7964 173.918 45.6928 174.054 45.5714C174.19 45.4428 174.29 45.3071 174.354 45.1642C174.418 45.0142 174.45 44.8749 174.45 44.7464V43.8142ZM175.929 46.6535C175.765 46.7535 175.547 46.8035 175.275 46.8035C175.04 46.8035 174.85 46.7357 174.707 46.6C174.572 46.4642 174.504 46.2464 174.504 45.9464C174.254 46.2464 173.961 46.4642 173.625 46.6C173.297 46.7357 172.94 46.8035 172.554 46.8035C172.304 46.8035 172.065 46.775 171.836 46.7178C171.615 46.6607 171.422 46.5714 171.257 46.45C171.093 46.3214 170.961 46.1607 170.861 45.9678C170.768 45.7678 170.722 45.5285 170.722 45.2499C170.722 44.9357 170.775 44.6785 170.882 44.4785C170.99 44.2785 171.129 44.1178 171.3 43.9964C171.479 43.8749 171.679 43.7821 171.9 43.7178C172.129 43.6464 172.361 43.5892 172.597 43.5464C172.847 43.4964 173.082 43.4607 173.304 43.4392C173.532 43.4107 173.732 43.3749 173.904 43.3321C174.075 43.2821 174.211 43.2142 174.311 43.1285C174.411 43.0356 174.461 42.9035 174.461 42.7321C174.461 42.5321 174.422 42.3714 174.343 42.2499C174.272 42.1285 174.175 42.0356 174.054 41.9714C173.94 41.9071 173.807 41.8642 173.657 41.8428C173.515 41.8214 173.372 41.8106 173.229 41.8106C172.843 41.8106 172.522 41.8856 172.265 42.0356C172.007 42.1785 171.868 42.4535 171.847 42.8606H170.936C170.95 42.5178 171.022 42.2285 171.15 41.9928C171.279 41.7571 171.45 41.5678 171.665 41.4249C171.879 41.2749 172.125 41.1678 172.404 41.1035C172.682 41.0392 172.975 41.0071 173.282 41.0071C173.532 41.0071 173.779 41.0249 174.022 41.0606C174.272 41.0964 174.497 41.1714 174.697 41.2856C174.897 41.3928 175.057 41.5464 175.179 41.7464C175.3 41.9464 175.361 42.2071 175.361 42.5285V45.3785C175.361 45.5928 175.372 45.7499 175.393 45.8499C175.422 45.9499 175.507 45.9999 175.65 45.9999C175.736 45.9999 175.829 45.9821 175.929 45.9464V46.6535Z" fill="#1F2A37"/>
<path d="M176.562 41.1356H177.419V42.0142H177.441C177.634 41.6714 177.88 41.4178 178.18 41.2535C178.487 41.0892 178.841 41.0071 179.241 41.0071C179.605 41.0071 179.909 41.0571 180.152 41.1571C180.394 41.2571 180.591 41.3964 180.741 41.5749C180.891 41.7535 180.994 41.9678 181.052 42.2178C181.116 42.4606 181.148 42.7321 181.148 43.0321V46.675H180.237V42.9249C180.237 42.5821 180.137 42.3106 179.937 42.1106C179.737 41.9106 179.462 41.8106 179.112 41.8106C178.834 41.8106 178.591 41.8535 178.384 41.9392C178.184 42.0249 178.016 42.1464 177.88 42.3035C177.744 42.4606 177.641 42.6464 177.569 42.8606C177.505 43.0678 177.473 43.2964 177.473 43.5464V46.675H176.562V41.1356Z" fill="#1F2A37"/>
<path d="M186.062 42.9142C185.991 42.5642 185.837 42.2928 185.602 42.0999C185.373 41.9071 185.069 41.8106 184.691 41.8106C184.362 41.8106 184.087 41.8714 183.866 41.9928C183.644 42.1142 183.466 42.2749 183.33 42.4749C183.202 42.6749 183.109 42.9071 183.052 43.1714C182.994 43.4285 182.966 43.6964 182.966 43.9749C182.966 44.2321 182.994 44.4821 183.052 44.7249C183.116 44.9678 183.212 45.1857 183.341 45.3785C183.469 45.5642 183.634 45.7142 183.834 45.8285C184.041 45.9428 184.291 45.9999 184.584 45.9999C185.027 45.9999 185.377 45.8821 185.634 45.6464C185.891 45.4035 186.048 45.0714 186.105 44.6499H187.037C186.937 45.3285 186.68 45.8571 186.266 46.2357C185.852 46.6142 185.294 46.8035 184.594 46.8035C184.173 46.8035 183.798 46.7357 183.469 46.6C183.148 46.4571 182.877 46.2607 182.655 46.0107C182.441 45.7607 182.277 45.4642 182.162 45.1214C182.055 44.7714 182.002 44.3892 182.002 43.9749C182.002 43.5607 182.055 43.1749 182.162 42.8178C182.269 42.4535 182.43 42.1392 182.644 41.8749C182.866 41.6035 183.137 41.3928 183.459 41.2428C183.787 41.0856 184.173 41.0071 184.616 41.0071C184.93 41.0071 185.223 41.0464 185.494 41.1249C185.773 41.1964 186.019 41.3106 186.234 41.4678C186.448 41.6249 186.619 41.8249 186.748 42.0678C186.884 42.3035 186.969 42.5856 187.005 42.9142H186.062Z" fill="#1F2A37"/>
<path d="M192.567 44.9178C192.446 45.5321 192.178 45.9999 191.763 46.3214C191.349 46.6428 190.828 46.8035 190.199 46.8035C189.756 46.8035 189.371 46.7321 189.042 46.5892C188.721 46.4392 188.449 46.2357 188.228 45.9785C188.006 45.7214 187.838 45.4142 187.724 45.0571C187.617 44.6999 187.556 44.3107 187.542 43.8892C187.542 43.4749 187.606 43.0928 187.735 42.7428C187.863 42.3856 188.042 42.0785 188.271 41.8214C188.506 41.5642 188.781 41.3642 189.096 41.2214C189.417 41.0785 189.767 41.0071 190.146 41.0071C190.638 41.0071 191.046 41.1106 191.367 41.3178C191.696 41.5178 191.956 41.7749 192.149 42.0892C192.349 42.4035 192.485 42.7464 192.556 43.1178C192.635 43.4892 192.667 43.8428 192.653 44.1785H188.506C188.499 44.4214 188.528 44.6535 188.592 44.8749C188.656 45.0892 188.76 45.2821 188.903 45.4535C189.046 45.6178 189.228 45.7499 189.449 45.8499C189.671 45.9499 189.931 45.9999 190.231 45.9999C190.61 45.9999 190.924 45.9107 191.174 45.7321C191.424 45.5535 191.588 45.2821 191.667 44.9178H192.567ZM191.688 43.3749C191.674 43.1607 191.624 42.9571 191.538 42.7642C191.46 42.5714 191.349 42.4071 191.206 42.2714C191.071 42.1285 190.906 42.0178 190.713 41.9392C190.521 41.8535 190.313 41.8106 190.092 41.8106C189.856 41.8106 189.642 41.8535 189.449 41.9392C189.263 42.0178 189.103 42.1285 188.967 42.2714C188.831 42.4142 188.724 42.5821 188.646 42.7749C188.567 42.9606 188.521 43.1607 188.506 43.3749H191.688Z" fill="#1F2A37"/>
<path d="M196.3 39.0249H199.654C200.418 39.0249 201 39.2249 201.4 39.6249C201.8 40.0178 202 40.5714 202 41.2856C202 41.9999 201.8 42.5571 201.4 42.9571C201 43.3571 200.418 43.5535 199.654 43.5464H197.318V46.675H196.3V39.0249ZM197.318 42.6892H199.311C199.89 42.6964 200.311 42.5785 200.575 42.3356C200.847 42.0928 200.982 41.7428 200.982 41.2856C200.982 40.8285 200.847 40.4821 200.575 40.2464C200.311 40.0035 199.89 39.8821 199.311 39.8821H197.318V42.6892Z" fill="#1F2A37"/>
<path d="M202.937 39.0249H203.848V46.675H202.937V39.0249Z" fill="#1F2A37"/>
<path d="M208.473 43.8142C208.387 43.8785 208.28 43.9285 208.152 43.9642C208.023 43.9999 207.887 44.0321 207.744 44.0607C207.602 44.0821 207.448 44.1035 207.284 44.1249C207.127 44.1392 206.973 44.1607 206.823 44.1892C206.673 44.2178 206.53 44.2535 206.394 44.2964C206.259 44.3392 206.141 44.3999 206.041 44.4785C205.941 44.5499 205.859 44.6428 205.794 44.7571C205.737 44.8714 205.709 45.0142 205.709 45.1857C205.709 45.3357 205.737 45.4642 205.794 45.5714C205.859 45.6714 205.937 45.7535 206.03 45.8178C206.13 45.8821 206.244 45.9285 206.373 45.9571C206.502 45.9857 206.637 45.9999 206.78 45.9999C207.08 45.9999 207.337 45.9607 207.552 45.8821C207.766 45.7964 207.941 45.6928 208.077 45.5714C208.212 45.4428 208.312 45.3071 208.377 45.1642C208.441 45.0142 208.473 44.8749 208.473 44.7464V43.8142ZM209.952 46.6535C209.787 46.7535 209.569 46.8035 209.298 46.8035C209.062 46.8035 208.873 46.7357 208.73 46.6C208.594 46.4642 208.527 46.2464 208.527 45.9464C208.277 46.2464 207.984 46.4642 207.648 46.6C207.319 46.7357 206.962 46.8035 206.577 46.8035C206.327 46.8035 206.087 46.775 205.859 46.7178C205.637 46.6607 205.444 46.5714 205.28 46.45C205.116 46.3214 204.984 46.1607 204.884 45.9678C204.791 45.7678 204.744 45.5285 204.744 45.2499C204.744 44.9357 204.798 44.6785 204.905 44.4785C205.012 44.2785 205.152 44.1178 205.323 43.9964C205.502 43.8749 205.702 43.7821 205.923 43.7178C206.152 43.6464 206.384 43.5892 206.619 43.5464C206.869 43.4964 207.105 43.4607 207.327 43.4392C207.555 43.4107 207.755 43.3749 207.927 43.3321C208.098 43.2821 208.234 43.2142 208.334 43.1285C208.434 43.0356 208.484 42.9035 208.484 42.7321C208.484 42.5321 208.444 42.3714 208.366 42.2499C208.294 42.1285 208.198 42.0356 208.077 41.9714C207.962 41.9071 207.83 41.8642 207.68 41.8428C207.537 41.8214 207.394 41.8106 207.252 41.8106C206.866 41.8106 206.544 41.8856 206.287 42.0356C206.03 42.1785 205.891 42.4535 205.869 42.8606H204.959C204.973 42.5178 205.044 42.2285 205.173 41.9928C205.302 41.7571 205.473 41.5678 205.687 41.4249C205.902 41.2749 206.148 41.1678 206.427 41.1035C206.705 41.0392 206.998 41.0071 207.305 41.0071C207.555 41.0071 207.802 41.0249 208.044 41.0606C208.294 41.0964 208.519 41.1714 208.719 41.2856C208.919 41.3928 209.08 41.5464 209.202 41.7464C209.323 41.9464 209.384 42.2071 209.384 42.5285V45.3785C209.384 45.5928 209.394 45.7499 209.416 45.8499C209.444 45.9499 209.53 45.9999 209.673 45.9999C209.759 45.9999 209.852 45.9821 209.952 45.9464V46.6535Z" fill="#1F2A37"/>
<path d="M211.849 41.1356H212.953V41.9392H211.849V45.3785C211.849 45.4857 211.856 45.5714 211.871 45.6357C211.892 45.6999 211.928 45.7499 211.978 45.7857C212.028 45.8214 212.096 45.8464 212.181 45.8607C212.274 45.8678 212.392 45.8714 212.535 45.8714H212.953V46.675H212.256C212.021 46.675 211.817 46.6607 211.646 46.6321C211.481 46.5964 211.346 46.5357 211.238 46.45C211.138 46.3642 211.063 46.2428 211.013 46.0857C210.963 45.9285 210.938 45.7214 210.938 45.4642V41.9392H209.996V41.1356H210.938V39.4749H211.849V41.1356Z" fill="#1F2A37"/>
<path d="M214.125 41.9392H213.193V41.1356H214.125V40.3106C214.125 39.8606 214.254 39.5213 214.511 39.2928C214.775 39.0571 215.157 38.9392 215.657 38.9392C215.743 38.9392 215.839 38.9463 215.947 38.9606C216.061 38.9749 216.161 38.9963 216.247 39.0249V39.8178C216.168 39.7892 216.082 39.7713 215.989 39.7642C215.897 39.7499 215.811 39.7428 215.732 39.7428C215.511 39.7428 215.339 39.7856 215.218 39.8713C215.097 39.9571 215.036 40.1214 215.036 40.3642V41.1356H216.107V41.9392H215.036V46.675H214.125V41.9392Z" fill="#1F2A37"/>
<path d="M216.406 43.9107C216.406 43.5035 216.463 43.1249 216.578 42.7749C216.692 42.4178 216.863 42.1106 217.092 41.8535C217.321 41.5892 217.599 41.3821 217.928 41.2321C218.263 41.0821 218.653 41.0071 219.096 41.0071C219.531 41.0071 219.917 41.0821 220.253 41.2321C220.588 41.3821 220.871 41.5892 221.099 41.8535C221.328 42.1106 221.499 42.4178 221.613 42.7749C221.728 43.1249 221.785 43.5035 221.785 43.9107C221.785 44.3178 221.728 44.6964 221.613 45.0464C221.499 45.3964 221.328 45.7035 221.099 45.9678C220.871 46.225 220.588 46.4285 220.253 46.5785C219.917 46.7285 219.531 46.8035 219.096 46.8035C218.653 46.8035 218.263 46.7285 217.928 46.5785C217.599 46.4285 217.321 46.225 217.092 45.9678C216.863 45.7035 216.692 45.3964 216.578 45.0464C216.463 44.6964 216.406 44.3178 216.406 43.9107ZM217.371 43.9107C217.371 44.2464 217.413 44.5464 217.499 44.8107C217.592 45.0678 217.717 45.2857 217.874 45.4642C218.031 45.6357 218.213 45.7678 218.421 45.8607C218.635 45.9535 218.86 45.9999 219.096 45.9999C219.331 45.9999 219.553 45.9535 219.76 45.8607C219.974 45.7678 220.16 45.6357 220.317 45.4642C220.474 45.2857 220.596 45.0678 220.681 44.8107C220.774 44.5464 220.821 44.2464 220.821 43.9107C220.821 43.5749 220.774 43.2785 220.681 43.0214C220.596 42.7571 220.474 42.5356 220.317 42.3571C220.16 42.1785 219.974 42.0428 219.76 41.9499C219.553 41.8571 219.331 41.8106 219.096 41.8106C218.86 41.8106 218.635 41.8571 218.421 41.9499C218.213 42.0428 218.031 42.1785 217.874 42.3571C217.717 42.5356 217.592 42.7571 217.499 43.0214C217.413 43.2785 217.371 43.5749 217.371 43.9107Z" fill="#1F2A37"/>
<path d="M222.612 41.1356H223.469V42.3035H223.491C223.712 41.8535 223.984 41.5214 224.305 41.3071C224.626 41.0928 225.034 40.9928 225.527 41.0071V41.9714C225.162 41.9714 224.851 42.0214 224.594 42.1214C224.337 42.2214 224.13 42.3678 223.973 42.5606C223.816 42.7535 223.701 42.9892 223.63 43.2678C223.559 43.5464 223.523 43.8607 223.523 44.2107V46.675H222.612V41.1356Z" fill="#1F2A37"/>
<path d="M225.998 41.1356H226.855V41.9499H226.877C227.291 41.3214 227.887 41.0071 228.666 41.0071C229.009 41.0071 229.319 41.0785 229.598 41.2214C229.877 41.3642 230.073 41.6071 230.187 41.9499C230.373 41.6499 230.619 41.4178 230.927 41.2535C231.234 41.0892 231.566 41.0071 231.923 41.0071C232.202 41.0071 232.452 41.0392 232.673 41.1035C232.902 41.1606 233.094 41.2535 233.252 41.3821C233.416 41.5106 233.541 41.6785 233.627 41.8856C233.719 42.0856 233.766 42.3285 233.766 42.6142V46.675H232.855V43.0428C232.855 42.8714 232.841 42.7106 232.812 42.5606C232.784 42.4106 232.73 42.2821 232.652 42.1749C232.573 42.0606 232.462 41.9714 232.319 41.9071C232.184 41.8428 232.005 41.8106 231.784 41.8106C231.341 41.8106 230.987 41.9392 230.723 42.1964C230.466 42.4535 230.337 42.7964 230.337 43.2249V46.675H229.427V43.0428C229.427 42.8642 229.409 42.6999 229.373 42.5499C229.344 42.3999 229.291 42.2714 229.212 42.1642C229.134 42.0499 229.027 41.9642 228.891 41.9071C228.755 41.8428 228.587 41.8106 228.387 41.8106C228.116 41.8106 227.887 41.8642 227.702 41.9714C227.516 42.0785 227.362 42.2071 227.241 42.3571C227.127 42.5071 227.041 42.6642 226.984 42.8285C226.934 42.9856 226.909 43.1178 226.909 43.2249V46.675H225.998V41.1356Z" fill="#1F2A37"/>
<path d="M73.0653 26.8891C73.0653 27.0034 73.0796 27.1272 73.1081 27.2605C73.1367 27.3843 73.1891 27.4986 73.2653 27.6034C73.3415 27.6986 73.4415 27.7795 73.5653 27.8462C73.6986 27.9129 73.8653 27.9462 74.0653 27.9462C74.1891 27.9462 74.3129 27.9415 74.4367 27.9319C74.57 27.9224 74.7034 27.8938 74.8367 27.8462V25.8748H74.1224C73.77 25.8748 73.5034 25.97 73.3224 26.1605C73.151 26.3414 73.0653 26.5843 73.0653 26.8891ZM77.051 30.6034C76.8224 30.6034 76.5986 30.5891 76.3796 30.5605C76.17 30.5224 75.9748 30.4605 75.7939 30.3748C75.6129 30.2891 75.451 30.1748 75.3081 30.0319C75.1748 29.8796 75.07 29.6843 74.9939 29.4462C74.8319 29.4843 74.6653 29.5176 74.4938 29.5462C74.3224 29.5653 74.151 29.5748 73.9796 29.5748C73.7415 29.5748 73.4653 29.5415 73.151 29.4748C72.8367 29.3986 72.5367 29.2653 72.251 29.0748C71.9748 28.8843 71.7367 28.6224 71.5367 28.2891C71.3462 27.9462 71.251 27.5081 71.251 26.9748C71.251 26.451 71.3415 26.0081 71.5224 25.6462C71.7129 25.2843 71.951 24.9891 72.2367 24.7605C72.5319 24.5319 72.8557 24.37 73.2081 24.2748C73.57 24.17 73.9224 24.1176 74.2653 24.1176H76.6939V28.3891C76.6939 28.6081 76.7224 28.7605 76.7796 28.8462C76.8367 28.9224 76.9701 28.9605 77.1796 28.9605H77.5224C77.5986 28.9605 77.6701 28.97 77.7367 28.9891C77.8034 28.9986 77.8605 29.0319 77.9082 29.0891C77.9653 29.1367 78.0082 29.2129 78.0367 29.3176C78.0653 29.4224 78.0796 29.5653 78.0796 29.7462C78.0796 30.07 78.032 30.2938 77.9367 30.4177C77.851 30.5415 77.7129 30.6034 77.5224 30.6034H77.051ZM72.2081 21.7319C72.2081 21.4557 72.3081 21.2176 72.5081 21.0176C72.7081 20.8176 72.9462 20.7176 73.2224 20.7176C73.4986 20.7176 73.7367 20.8176 73.9367 21.0176C74.1367 21.2176 74.2367 21.4557 74.2367 21.7319C74.2367 22.0081 74.1367 22.2462 73.9367 22.4462C73.7367 22.6462 73.4986 22.7462 73.2224 22.7462C72.9462 22.7462 72.7081 22.6462 72.5081 22.4462C72.3081 22.2462 72.2081 22.0081 72.2081 21.7319ZM74.5367 21.7319C74.5367 21.4557 74.6367 21.2176 74.8367 21.0176C75.0367 20.8176 75.2748 20.7176 75.551 20.7176C75.8272 20.7176 76.0653 20.8176 76.2653 21.0176C76.4653 21.2176 76.5653 21.4557 76.5653 21.7319C76.5653 22.0081 76.4653 22.2462 76.2653 22.4462C76.0653 22.6462 75.8272 22.7462 75.551 22.7462C75.2748 22.7462 75.0367 22.6462 74.8367 22.4462C74.6367 22.2462 74.5367 22.0081 74.5367 21.7319Z" fill="#1F2A37"/>
<path d="M82.6432 30.6034C82.5099 30.6034 82.367 30.5938 82.2146 30.5748C82.0623 30.5557 81.9146 30.5224 81.7718 30.4748C81.6289 30.4177 81.4908 30.3415 81.3575 30.2462C81.2337 30.151 81.1289 30.0272 81.0432 29.8748C80.9289 30.0367 80.7908 30.17 80.6289 30.2748C80.467 30.37 80.2956 30.4415 80.1146 30.4891C79.9337 30.5367 79.7432 30.57 79.5432 30.5891C79.3527 30.5986 79.1622 30.6034 78.9718 30.6034H77.5289C77.4527 30.6034 77.3813 30.5986 77.3146 30.5891C77.248 30.57 77.1908 30.5367 77.1432 30.4891C77.086 30.4319 77.0432 30.351 77.0146 30.2462C76.986 30.1415 76.9718 29.9986 76.9718 29.8176C76.9718 29.4938 77.0194 29.27 77.1146 29.1462C77.2003 29.0224 77.3384 28.9605 77.5289 28.9605H78.6718C78.9956 28.9605 79.2194 28.9129 79.3432 28.8176C79.4765 28.7129 79.5432 28.4843 79.5432 28.1319V24.9176H81.4004V27.9748C81.4004 28.3272 81.4908 28.5795 81.6718 28.7319C81.8623 28.8843 82.1861 28.9605 82.6432 28.9605C82.7194 28.9605 82.7908 28.97 82.8575 28.9891C82.9242 28.9986 82.9813 29.0319 83.0289 29.0891C83.0861 29.1367 83.1289 29.2129 83.1575 29.3176C83.1861 29.4224 83.2004 29.5653 83.2004 29.7462C83.2004 30.07 83.1527 30.2938 83.0575 30.4177C82.9718 30.5415 82.8337 30.6034 82.6432 30.6034ZM77.9003 33.0034C77.9003 32.7272 78.0003 32.4891 78.2003 32.2891C78.4003 32.0891 78.6384 31.9891 78.9146 31.9891C79.1908 31.9891 79.4289 32.0891 79.6289 32.2891C79.8289 32.4891 79.9289 32.7272 79.9289 33.0034C79.9289 33.2796 79.8289 33.5177 79.6289 33.7177C79.4289 33.9177 79.1908 34.0177 78.9146 34.0177C78.6384 34.0177 78.4003 33.9177 78.2003 33.7177C78.0003 33.5177 77.9003 33.2796 77.9003 33.0034ZM80.2289 33.0034C80.2289 32.7272 80.3289 32.4891 80.5289 32.2891C80.7289 32.0891 80.967 31.9891 81.2432 31.9891C81.5194 31.9891 81.7575 32.0891 81.9575 32.2891C82.1575 32.4891 82.2575 32.7272 82.2575 33.0034C82.2575 33.2796 82.1575 33.5177 81.9575 33.7177C81.7575 33.9177 81.5194 34.0177 81.2432 34.0177C80.967 34.0177 80.7289 33.9177 80.5289 33.7177C80.3289 33.5177 80.2289 33.2796 80.2289 33.0034Z" fill="#1F2A37"/>
<path d="M83.5203 28.9605C83.8442 28.9605 84.068 28.9129 84.1918 28.8176C84.3251 28.7129 84.3918 28.4843 84.3918 28.1319V24.9176H86.2489V27.9748C86.2489 28.3272 86.3156 28.5795 86.4489 28.7319C86.5823 28.8843 86.8775 28.9605 87.3346 28.9605C87.4108 28.9605 87.4823 28.97 87.5489 28.9891C87.6156 28.9986 87.6727 29.0319 87.7204 29.0891C87.7775 29.1367 87.8204 29.2129 87.8489 29.3176C87.8775 29.4224 87.8918 29.5653 87.8918 29.7462C87.8918 30.07 87.8442 30.2938 87.7489 30.4177C87.6632 30.5415 87.5251 30.6034 87.3346 30.6034C87.0585 30.6034 86.7918 30.5605 86.5346 30.4748C86.2775 30.3796 86.0632 30.1796 85.8918 29.8748C85.7775 30.0367 85.6394 30.17 85.4775 30.2748C85.3156 30.37 85.1442 30.4415 84.9632 30.4891C84.7823 30.5367 84.5918 30.57 84.3918 30.5891C84.2013 30.5986 84.0108 30.6034 83.8203 30.6034H82.6489C82.5727 30.6034 82.5013 30.5986 82.4346 30.5891C82.368 30.57 82.3108 30.5367 82.2632 30.4891C82.206 30.4319 82.1632 30.351 82.1346 30.2462C82.106 30.1415 82.0918 29.9986 82.0918 29.8176C82.0918 29.4938 82.1394 29.27 82.2346 29.1462C82.3203 29.0224 82.4584 28.9605 82.6489 28.9605H83.5203ZM84.2918 22.4462C84.2918 22.17 84.3918 21.9319 84.5918 21.7319C84.7918 21.5319 85.0299 21.4319 85.3061 21.4319C85.5823 21.4319 85.8204 21.5319 86.0204 21.7319C86.2204 21.9319 86.3204 22.17 86.3204 22.4462C86.3204 22.7224 86.2204 22.9605 86.0204 23.1605C85.8204 23.3605 85.5823 23.4605 85.3061 23.4605C85.0299 23.4605 84.7918 23.3605 84.5918 23.1605C84.3918 22.9605 84.2918 22.7224 84.2918 22.4462Z" fill="#1F2A37"/>
<path d="M95.1793 28.9605V28.1462C95.1793 27.9176 95.1555 27.7034 95.1079 27.5034C95.0603 27.2938 94.9793 27.1129 94.865 26.9605C94.7603 26.8081 94.6174 26.6891 94.4365 26.6033C94.2555 26.5176 94.0317 26.4748 93.765 26.4748C93.4793 26.4748 93.1984 26.5414 92.9222 26.6748C92.6555 26.8081 92.3984 26.9891 92.1507 27.2176C91.9126 27.4462 91.6936 27.7129 91.4936 28.0176C91.2936 28.3129 91.1222 28.6272 90.9793 28.9605H95.1793ZM89.0222 28.9605V20.4033H90.8793V26.3605C91.2412 25.8938 91.6936 25.5081 92.2365 25.2033C92.7888 24.8891 93.3746 24.7319 93.9936 24.7319C94.9936 24.7319 95.746 25.0272 96.2508 25.6176C96.765 26.2081 97.0222 27.0176 97.0222 28.0462V30.6034H87.3364C87.2602 30.6034 87.1888 30.5986 87.1221 30.5891C87.0555 30.57 86.9983 30.5367 86.9507 30.4891C86.8936 30.4319 86.8507 30.351 86.8221 30.2462C86.7936 30.1415 86.7793 29.9986 86.7793 29.8176C86.7793 29.4938 86.8269 29.27 86.9221 29.1462C87.0079 29.0224 87.146 28.9605 87.3364 28.9605H89.0222Z" fill="#1F2A37"/>
<path d="M103.842 30.6034C103.709 31.6415 103.28 32.3939 102.556 32.8605C101.833 33.3367 100.752 33.5748 99.3136 33.5748H98.8707V31.8319H99.1993C99.6946 31.8319 100.109 31.8034 100.442 31.7462C100.776 31.6891 101.047 31.6034 101.256 31.4891C101.476 31.3843 101.637 31.2558 101.742 31.1034C101.847 30.9605 101.914 30.7938 101.942 30.6034H101.056C100.637 30.6034 100.252 30.5557 99.8993 30.4605C99.5469 30.3653 99.2422 30.2129 98.985 30.0034C98.7279 29.7843 98.5279 29.5081 98.385 29.1748C98.2422 28.8319 98.1707 28.4224 98.1707 27.9462C98.1707 27.5653 98.2326 27.1891 98.3565 26.8176C98.4898 26.4462 98.6803 26.1129 98.9279 25.8176C99.1755 25.5224 99.4803 25.2891 99.8422 25.1176C100.204 24.9367 100.618 24.8462 101.085 24.8462C101.609 24.8462 102.047 24.9367 102.399 25.1176C102.761 25.2986 103.052 25.5557 103.271 25.8891C103.49 26.2129 103.647 26.6033 103.742 27.0605C103.837 27.5081 103.885 28.0034 103.885 28.5462V28.9605H104.928C105.004 28.9605 105.076 28.97 105.142 28.9891C105.209 28.9986 105.266 29.0319 105.314 29.0891C105.371 29.1367 105.414 29.2129 105.442 29.3176C105.471 29.4224 105.485 29.5653 105.485 29.7462C105.485 30.07 105.437 30.2938 105.342 30.4177C105.256 30.5415 105.118 30.6034 104.928 30.6034H103.842ZM99.9993 27.7748C99.9993 28.2319 100.095 28.5462 100.285 28.7176C100.485 28.8795 100.747 28.9605 101.071 28.9605H102.014V28.1034C102.014 27.6462 101.942 27.27 101.799 26.9748C101.656 26.67 101.39 26.5176 100.999 26.5176C100.647 26.5176 100.39 26.6367 100.228 26.8748C100.076 27.1129 99.9993 27.4129 99.9993 27.7748Z" fill="#1F2A37"/>
<path d="M106.571 28.9605V20.4033H108.443V30.6034H104.928C104.852 30.6034 104.781 30.5986 104.714 30.5891C104.648 30.57 104.59 30.5367 104.543 30.4891C104.486 30.4319 104.443 30.351 104.414 30.2462C104.386 30.1415 104.371 29.9986 104.371 29.8176C104.371 29.4938 104.419 29.27 104.514 29.1462C104.6 29.0224 104.737 28.9605 104.928 28.9605H106.571Z" fill="#1F2A37"/>
<path d="M111.995 20.4033V30.6034H110.152V20.4033H111.995Z" fill="#1F2A37"/>
<path d="M128.343 30.6034H119.8C119.238 30.6034 118.767 30.5653 118.386 30.4891C118.005 30.4034 117.7 30.27 117.472 30.0891C117.243 29.9081 117.076 29.6748 116.972 29.3891C116.876 29.1034 116.829 28.7557 116.829 28.3462V25.9891H118.7V28.0748C118.7 28.2557 118.724 28.4034 118.772 28.5176C118.819 28.6319 118.905 28.7224 119.029 28.7891C119.153 28.8557 119.319 28.9034 119.529 28.9319C119.738 28.951 120.005 28.9605 120.329 28.9605H126.486V24.9176H128.343V30.6034ZM120.486 23.2748C120.486 22.9986 120.586 22.7605 120.786 22.5605C120.986 22.3605 121.224 22.2605 121.5 22.2605C121.776 22.2605 122.014 22.3605 122.214 22.5605C122.414 22.7605 122.514 22.9986 122.514 23.2748C122.514 23.551 122.414 23.7891 122.214 23.9891C122.014 24.1891 121.776 24.2891 121.5 24.2891C121.224 24.2891 120.986 24.1891 120.786 23.9891C120.586 23.7891 120.486 23.551 120.486 23.2748ZM122.814 23.2748C122.814 22.9986 122.914 22.7605 123.114 22.5605C123.314 22.3605 123.553 22.2605 123.829 22.2605C124.105 22.2605 124.343 22.3605 124.543 22.5605C124.743 22.7605 124.843 22.9986 124.843 23.2748C124.843 23.551 124.743 23.7891 124.543 23.9891C124.343 24.1891 124.105 24.2891 123.829 24.2891C123.553 24.2891 123.314 24.1891 123.114 23.9891C122.914 23.7891 122.814 23.551 122.814 23.2748Z" fill="#1F2A37"/>
<path d="M133.432 29.7462C133.432 30.07 133.384 30.2938 133.289 30.4177C133.203 30.5415 133.065 30.6034 132.875 30.6034H132.275C131.951 30.6034 131.651 30.57 131.375 30.5034C131.108 30.4272 130.875 30.3081 130.675 30.1462C130.484 29.9748 130.332 29.751 130.218 29.4748C130.113 29.1986 130.06 28.8557 130.06 28.4462V20.4033H131.918V28.1891C131.918 28.5224 131.975 28.7367 132.089 28.8319C132.213 28.9176 132.384 28.9605 132.603 28.9605H132.875C132.951 28.9605 133.022 28.97 133.089 28.9891C133.156 28.9986 133.213 29.0319 133.26 29.0891C133.318 29.1367 133.36 29.2129 133.389 29.3176C133.418 29.4224 133.432 29.5653 133.432 29.7462Z" fill="#1F2A37"/>
<path d="M134.373 22.4462C134.373 22.17 134.473 21.9319 134.673 21.7319C134.873 21.5319 135.111 21.4319 135.387 21.4319C135.663 21.4319 135.901 21.5319 136.101 21.7319C136.301 21.9319 136.401 22.17 136.401 22.4462C136.401 22.7224 136.301 22.9605 136.101 23.1605C135.901 23.3605 135.663 23.4605 135.387 23.4605C135.111 23.4605 134.873 23.3605 134.673 23.1605C134.473 22.9605 134.373 22.7224 134.373 22.4462ZM134.487 28.9605V24.9176H136.358V30.6034H132.844C132.768 30.6034 132.696 30.5986 132.63 30.5891C132.563 30.57 132.506 30.5367 132.458 30.4891C132.401 30.4319 132.358 30.351 132.33 30.2462C132.301 30.1415 132.287 29.9986 132.287 29.8176C132.287 29.4938 132.335 29.27 132.43 29.1462C132.516 29.0224 132.654 28.9605 132.844 28.9605H134.487Z" fill="#1F2A37"/>
<path d="M141.44 29.7462C141.44 30.07 141.392 30.2938 141.297 30.4177C141.211 30.5415 141.073 30.6034 140.883 30.6034H140.283C139.959 30.6034 139.659 30.57 139.383 30.5034C139.116 30.4272 138.883 30.3081 138.683 30.1462C138.492 29.9748 138.34 29.751 138.225 29.4748C138.121 29.1986 138.068 28.8557 138.068 28.4462V20.4033H139.925V28.1891C139.925 28.5224 139.983 28.7367 140.097 28.8319C140.221 28.9176 140.392 28.9605 140.611 28.9605H140.883C140.959 28.9605 141.03 28.97 141.097 28.9891C141.163 28.9986 141.221 29.0319 141.268 29.0891C141.325 29.1367 141.368 29.2129 141.397 29.3176C141.425 29.4224 141.44 29.5653 141.44 29.7462Z" fill="#1F2A37"/>
<path d="M145.981 30.6034C145.847 30.6034 145.704 30.5938 145.552 30.5748C145.4 30.5557 145.252 30.5224 145.109 30.4748C144.966 30.4177 144.828 30.3415 144.695 30.2462C144.571 30.151 144.466 30.0272 144.381 29.8748C144.266 30.0367 144.128 30.17 143.966 30.2748C143.804 30.37 143.633 30.4415 143.452 30.4891C143.271 30.5367 143.081 30.57 142.881 30.5891C142.69 30.5986 142.5 30.6034 142.309 30.6034H140.866C140.79 30.6034 140.719 30.5986 140.652 30.5891C140.585 30.57 140.528 30.5367 140.481 30.4891C140.423 30.4319 140.381 30.351 140.352 30.2462C140.323 30.1415 140.309 29.9986 140.309 29.8176C140.309 29.4938 140.357 29.27 140.452 29.1462C140.538 29.0224 140.676 28.9605 140.866 28.9605H142.009C142.333 28.9605 142.557 28.9129 142.681 28.8176C142.814 28.7129 142.881 28.4843 142.881 28.1319V24.9176H144.738V27.9748C144.738 28.3272 144.828 28.5795 145.009 28.7319C145.2 28.8843 145.523 28.9605 145.981 28.9605C146.057 28.9605 146.128 28.97 146.195 28.9891C146.262 28.9986 146.319 29.0319 146.366 29.0891C146.423 29.1367 146.466 29.2129 146.495 29.3176C146.523 29.4224 146.538 29.5653 146.538 29.7462C146.538 30.07 146.49 30.2938 146.395 30.4177C146.309 30.5415 146.171 30.6034 145.981 30.6034ZM141.238 33.0034C141.238 32.7272 141.338 32.4891 141.538 32.2891C141.738 32.0891 141.976 31.9891 142.252 31.9891C142.528 31.9891 142.766 32.0891 142.966 32.2891C143.166 32.4891 143.266 32.7272 143.266 33.0034C143.266 33.2796 143.166 33.5177 142.966 33.7177C142.766 33.9177 142.528 34.0177 142.252 34.0177C141.976 34.0177 141.738 33.9177 141.538 33.7177C141.338 33.5177 141.238 33.2796 141.238 33.0034ZM143.566 33.0034C143.566 32.7272 143.666 32.4891 143.866 32.2891C144.066 32.0891 144.304 31.9891 144.581 31.9891C144.857 31.9891 145.095 32.0891 145.295 32.2891C145.495 32.4891 145.595 32.7272 145.595 33.0034C145.595 33.2796 145.495 33.5177 145.295 33.7177C145.095 33.9177 144.857 34.0177 144.581 34.0177C144.304 34.0177 144.066 33.9177 143.866 33.7177C143.666 33.5177 143.566 33.2796 143.566 33.0034Z" fill="#1F2A37"/>
<path d="M146.858 28.9605C147.181 28.9605 147.405 28.9129 147.529 28.8176C147.662 28.7129 147.729 28.4843 147.729 28.1319V24.9176H149.586V27.9748C149.586 28.3272 149.653 28.5795 149.786 28.7319C149.92 28.8843 150.215 28.9605 150.672 28.9605C150.748 28.9605 150.82 28.97 150.886 28.9891C150.953 28.9986 151.01 29.0319 151.058 29.0891C151.115 29.1367 151.158 29.2129 151.186 29.3176C151.215 29.4224 151.229 29.5653 151.229 29.7462C151.229 30.07 151.182 30.2938 151.086 30.4177C151.001 30.5415 150.862 30.6034 150.672 30.6034C150.396 30.6034 150.129 30.5605 149.872 30.4748C149.615 30.3796 149.401 30.1796 149.229 29.8748C149.115 30.0367 148.977 30.17 148.815 30.2748C148.653 30.37 148.482 30.4415 148.301 30.4891C148.12 30.5367 147.929 30.57 147.729 30.5891C147.539 30.5986 147.348 30.6034 147.158 30.6034H145.986C145.91 30.6034 145.839 30.5986 145.772 30.5891C145.705 30.57 145.648 30.5367 145.601 30.4891C145.543 30.4319 145.501 30.351 145.472 30.2462C145.443 30.1415 145.429 29.9986 145.429 29.8176C145.429 29.4938 145.477 29.27 145.572 29.1462C145.658 29.0224 145.796 28.9605 145.986 28.9605H146.858ZM147.643 32.9605C147.643 32.6843 147.743 32.4462 147.943 32.2462C148.143 32.0462 148.382 31.9462 148.658 31.9462C148.934 31.9462 149.172 32.0462 149.372 32.2462C149.572 32.4462 149.672 32.6843 149.672 32.9605C149.672 33.2367 149.572 33.4748 149.372 33.6748C149.172 33.8748 148.934 33.9748 148.658 33.9748C148.382 33.9748 148.143 33.8748 147.943 33.6748C147.743 33.4748 147.643 33.2367 147.643 32.9605Z" fill="#1F2A37"/>
<path d="M152.317 28.9605V20.4033H154.188V30.6034H150.674C150.598 30.6034 150.526 30.5986 150.459 30.5891C150.393 30.57 150.336 30.5367 150.288 30.4891C150.231 30.4319 150.188 30.351 150.159 30.2462C150.131 30.1415 150.117 29.9986 150.117 29.8176C150.117 29.4938 150.164 29.27 150.259 29.1462C150.345 29.0224 150.483 28.9605 150.674 28.9605H152.317Z" fill="#1F2A37"/>
<path d="M157.74 20.4033V30.6034H155.898V20.4033H157.74Z" fill="#1F2A37"/>
<path d="M164.388 26.8891C164.388 27.0034 164.403 27.1272 164.431 27.2605C164.46 27.3843 164.512 27.4986 164.588 27.6034C164.664 27.6986 164.764 27.7795 164.888 27.8462C165.022 27.9129 165.188 27.9462 165.388 27.9462C165.512 27.9462 165.636 27.9415 165.76 27.9319C165.893 27.9224 166.026 27.8938 166.16 27.8462V25.8748H165.445C165.093 25.8748 164.826 25.97 164.645 26.1605C164.474 26.3414 164.388 26.5843 164.388 26.8891ZM168.374 30.6034C168.145 30.6034 167.922 30.5891 167.703 30.5605C167.493 30.5224 167.298 30.4605 167.117 30.3748C166.936 30.2891 166.774 30.1748 166.631 30.0319C166.498 29.8796 166.393 29.6843 166.317 29.4462C166.155 29.4843 165.988 29.5176 165.817 29.5462C165.645 29.5653 165.474 29.5748 165.303 29.5748C165.064 29.5748 164.788 29.5415 164.474 29.4748C164.16 29.3986 163.86 29.2653 163.574 29.0748C163.298 28.8843 163.06 28.6224 162.86 28.2891C162.669 27.9462 162.574 27.5081 162.574 26.9748C162.574 26.451 162.664 26.0081 162.845 25.6462C163.036 25.2843 163.274 24.9891 163.56 24.7605C163.855 24.5319 164.179 24.37 164.531 24.2748C164.893 24.17 165.245 24.1176 165.588 24.1176H168.017V28.3891C168.017 28.6081 168.045 28.7605 168.103 28.8462C168.16 28.9224 168.293 28.9605 168.503 28.9605H168.845C168.922 28.9605 168.993 28.97 169.06 28.9891C169.126 28.9986 169.183 29.0319 169.231 29.0891C169.288 29.1367 169.331 29.2129 169.36 29.3176C169.388 29.4224 169.403 29.5653 169.403 29.7462C169.403 30.07 169.355 30.2938 169.26 30.4177C169.174 30.5415 169.036 30.6034 168.845 30.6034H168.374ZM163.531 21.7319C163.531 21.4557 163.631 21.2176 163.831 21.0176C164.031 20.8176 164.269 20.7176 164.545 20.7176C164.822 20.7176 165.06 20.8176 165.26 21.0176C165.46 21.2176 165.56 21.4557 165.56 21.7319C165.56 22.0081 165.46 22.2462 165.26 22.4462C165.06 22.6462 164.822 22.7462 164.545 22.7462C164.269 22.7462 164.031 22.6462 163.831 22.4462C163.631 22.2462 163.531 22.0081 163.531 21.7319ZM165.86 21.7319C165.86 21.4557 165.96 21.2176 166.16 21.0176C166.36 20.8176 166.598 20.7176 166.874 20.7176C167.15 20.7176 167.388 20.8176 167.588 21.0176C167.788 21.2176 167.888 21.4557 167.888 21.7319C167.888 22.0081 167.788 22.2462 167.588 22.4462C167.388 22.6462 167.15 22.7462 166.874 22.7462C166.598 22.7462 166.36 22.6462 166.16 22.4462C165.96 22.2462 165.86 22.0081 165.86 21.7319Z" fill="#1F2A37"/>
<path d="M169.595 28.9605C169.709 28.9605 169.847 28.8653 170.009 28.6748C170.18 28.4843 170.333 28.2081 170.466 27.8462C170.676 27.3034 170.899 26.8557 171.138 26.5033C171.385 26.1414 171.642 25.8557 171.909 25.6462C172.176 25.4272 172.442 25.2748 172.709 25.1891C172.976 25.1033 173.238 25.0605 173.495 25.0605C173.866 25.0605 174.214 25.1319 174.538 25.2748C174.861 25.4176 175.138 25.6176 175.366 25.8748C175.604 26.1319 175.79 26.4414 175.923 26.8034C176.057 27.1653 176.123 27.5605 176.123 27.9891C176.123 28.0557 176.119 28.1176 176.109 28.1748C176.109 28.2319 176.109 28.2891 176.109 28.3462C176.233 28.5748 176.423 28.7367 176.68 28.8319C176.938 28.9176 177.18 28.9605 177.409 28.9605C177.485 28.9605 177.557 28.97 177.623 28.9891C177.69 28.9986 177.747 29.0319 177.795 29.0891C177.852 29.1367 177.895 29.2129 177.923 29.3176C177.952 29.4224 177.966 29.5653 177.966 29.7462C177.966 30.07 177.919 30.2938 177.823 30.4177C177.738 30.5415 177.6 30.6034 177.409 30.6034C177.047 30.6034 176.723 30.5367 176.438 30.4034C176.152 30.2605 175.904 30.0367 175.695 29.7319C175.495 30.0653 175.219 30.3224 174.866 30.5034C174.514 30.6843 174.085 30.7748 173.58 30.7748C173.2 30.7748 172.814 30.7177 172.423 30.6034C172.033 30.4891 171.628 30.2938 171.209 30.0177C170.961 30.2938 170.709 30.4605 170.452 30.5177C170.195 30.5748 169.914 30.6034 169.609 30.6034H168.852C168.776 30.6034 168.704 30.5986 168.638 30.5891C168.571 30.57 168.514 30.5367 168.466 30.4891C168.409 30.4319 168.366 30.351 168.338 30.2462C168.309 30.1415 168.295 29.9986 168.295 29.8176C168.295 29.4938 168.342 29.27 168.438 29.1462C168.523 29.0224 168.661 28.9605 168.852 28.9605H169.595ZM174.309 27.9462C174.309 27.8034 174.29 27.6605 174.252 27.5176C174.223 27.3748 174.171 27.251 174.095 27.1462C174.028 27.0319 173.933 26.9414 173.809 26.8748C173.695 26.7986 173.552 26.7605 173.38 26.7605C173.133 26.7605 172.876 26.8938 172.609 27.1605C172.342 27.4272 172.133 27.8986 171.98 28.5748C172.219 28.7176 172.442 28.8367 172.652 28.9319C172.871 29.0176 173.104 29.0605 173.352 29.0605C173.657 29.0605 173.89 28.9605 174.052 28.7605C174.223 28.551 174.309 28.2795 174.309 27.9462Z" fill="#1F2A37"/>
<path d="M180.732 28.9605C180.932 28.9605 181.123 28.9224 181.304 28.8462C181.485 28.7605 181.575 28.5938 181.575 28.3462C181.575 28.1748 181.466 27.9462 181.247 27.6605C181.037 27.3653 180.756 27.0557 180.404 26.7319C180.051 26.4081 179.651 26.0891 179.204 25.7748C178.756 25.451 178.304 25.17 177.847 24.9319C177.913 24.6176 177.99 24.3605 178.075 24.1605C178.17 23.951 178.266 23.7843 178.361 23.6605C178.456 23.5367 178.547 23.4462 178.632 23.389C178.728 23.3224 178.804 23.2748 178.861 23.2462L183.847 21.0462V22.9605L180.475 24.3605V24.4033C181.047 24.7748 181.518 25.1414 181.89 25.5033C182.261 25.8653 182.556 26.2176 182.775 26.5605C183.004 26.9034 183.161 27.2319 183.247 27.5462C183.332 27.851 183.375 28.1367 183.375 28.4034C183.375 28.6319 183.342 28.8748 183.275 29.1319C183.218 29.3891 183.099 29.6272 182.918 29.8462C182.737 30.0653 182.48 30.2462 182.147 30.3891C181.823 30.5319 181.394 30.6034 180.861 30.6034H177.404C177.328 30.6034 177.256 30.5986 177.19 30.5891C177.123 30.57 177.066 30.5367 177.018 30.4891C176.961 30.4319 176.918 30.351 176.89 30.2462C176.861 30.1415 176.847 29.9986 176.847 29.8176C176.847 29.4938 176.894 29.27 176.99 29.1462C177.075 29.0224 177.213 28.9605 177.404 28.9605H180.732Z" fill="#1F2A37"/>
<path d="M190.31 30.6034C190.177 31.6415 189.748 32.3939 189.025 32.8605C188.301 33.3367 187.22 33.5748 185.782 33.5748H185.339V31.8319H185.667C186.163 31.8319 186.577 31.8034 186.91 31.7462C187.244 31.6891 187.515 31.6034 187.725 31.4891C187.944 31.3843 188.105 31.2558 188.21 31.1034C188.315 30.9605 188.382 30.7938 188.41 30.6034H187.525C187.105 30.6034 186.72 30.5557 186.367 30.4605C186.015 30.3653 185.71 30.2129 185.453 30.0034C185.196 29.7843 184.996 29.5081 184.853 29.1748C184.71 28.8319 184.639 28.4224 184.639 27.9462C184.639 27.5653 184.701 27.1891 184.824 26.8176C184.958 26.4462 185.148 26.1129 185.396 25.8176C185.644 25.5224 185.948 25.2891 186.31 25.1176C186.672 24.9367 187.086 24.8462 187.553 24.8462C188.077 24.8462 188.515 24.9367 188.867 25.1176C189.229 25.2986 189.52 25.5557 189.739 25.8891C189.958 26.2129 190.115 26.6033 190.21 27.0605C190.305 27.5081 190.353 28.0034 190.353 28.5462V28.9605H191.396C191.472 28.9605 191.544 28.97 191.61 28.9891C191.677 28.9986 191.734 29.0319 191.782 29.0891C191.839 29.1367 191.882 29.2129 191.91 29.3176C191.939 29.4224 191.953 29.5653 191.953 29.7462C191.953 30.07 191.905 30.2938 191.81 30.4177C191.725 30.5415 191.586 30.6034 191.396 30.6034H190.31ZM186.467 27.7748C186.467 28.2319 186.563 28.5462 186.753 28.7176C186.953 28.8795 187.215 28.9605 187.539 28.9605H188.482V28.1034C188.482 27.6462 188.41 27.27 188.267 26.9748C188.125 26.67 187.858 26.5176 187.467 26.5176C187.115 26.5176 186.858 26.6367 186.696 26.8748C186.544 27.1129 186.467 27.4129 186.467 27.7748Z" fill="#1F2A37"/>
<path d="M196.511 28.9605C196.482 28.5795 196.42 28.2319 196.325 27.9176C196.23 27.5938 196.082 27.3176 195.882 27.0891C195.692 26.8605 195.444 26.6843 195.139 26.5605C194.835 26.4272 194.454 26.3605 193.997 26.3605C193.844 26.3605 193.601 26.3843 193.268 26.4319C192.944 26.47 192.616 26.5367 192.282 26.6319V24.9748C192.501 24.8986 192.797 24.8176 193.168 24.7319C193.549 24.6462 193.939 24.6033 194.339 24.6033C195.082 24.6033 195.706 24.7319 196.211 24.9891C196.725 25.2462 197.139 25.5891 197.454 26.0176C197.768 26.4462 197.992 26.9462 198.125 27.5176C198.268 28.0795 198.34 28.6653 198.34 29.2748V30.6034H191.396C191.32 30.6034 191.249 30.5986 191.182 30.5891C191.116 30.57 191.059 30.5367 191.011 30.4891C190.954 30.4319 190.911 30.351 190.882 30.2462C190.854 30.1415 190.839 29.9986 190.839 29.8176C190.839 29.4938 190.887 29.27 190.982 29.1462C191.068 29.0224 191.205 28.9605 191.396 28.9605H196.511Z" fill="#1F2A37"/>
<path d="M204.846 26.8891C204.846 27.0034 204.86 27.1272 204.889 27.2605C204.917 27.3843 204.97 27.4986 205.046 27.6034C205.122 27.6986 205.222 27.7795 205.346 27.8462C205.479 27.9129 205.646 27.9462 205.846 27.9462C205.97 27.9462 206.094 27.9415 206.217 27.9319C206.351 27.9224 206.484 27.8938 206.617 27.8462V25.8748H205.903C205.551 25.8748 205.284 25.97 205.103 26.1605C204.932 26.3414 204.846 26.5843 204.846 26.8891ZM208.832 30.6034C208.603 30.6034 208.379 30.5891 208.16 30.5605C207.951 30.5224 207.756 30.4605 207.575 30.3748C207.394 30.2891 207.232 30.1748 207.089 30.0319C206.956 29.8796 206.851 29.6843 206.775 29.4462C206.613 29.4843 206.446 29.5176 206.275 29.5462C206.103 29.5653 205.932 29.5748 205.76 29.5748C205.522 29.5748 205.246 29.5415 204.932 29.4748C204.617 29.3986 204.317 29.2653 204.032 29.0748C203.756 28.8843 203.517 28.6224 203.317 28.2891C203.127 27.9462 203.032 27.5081 203.032 26.9748C203.032 26.451 203.122 26.0081 203.303 25.6462C203.494 25.2843 203.732 24.9891 204.017 24.7605C204.313 24.5319 204.636 24.37 204.989 24.2748C205.351 24.17 205.703 24.1176 206.046 24.1176H208.475V28.3891C208.475 28.6081 208.503 28.7605 208.56 28.8462C208.617 28.9224 208.751 28.9605 208.96 28.9605H209.303C209.379 28.9605 209.451 28.97 209.517 28.9891C209.584 28.9986 209.641 29.0319 209.689 29.0891C209.746 29.1367 209.789 29.2129 209.817 29.3176C209.846 29.4224 209.86 29.5653 209.86 29.7462C209.86 30.07 209.813 30.2938 209.717 30.4177C209.632 30.5415 209.494 30.6034 209.303 30.6034H208.832ZM203.989 21.7319C203.989 21.4557 204.089 21.2176 204.289 21.0176C204.489 20.8176 204.727 20.7176 205.003 20.7176C205.279 20.7176 205.517 20.8176 205.717 21.0176C205.917 21.2176 206.017 21.4557 206.017 21.7319C206.017 22.0081 205.917 22.2462 205.717 22.4462C205.517 22.6462 205.279 22.7462 205.003 22.7462C204.727 22.7462 204.489 22.6462 204.289 22.4462C204.089 22.2462 203.989 22.0081 203.989 21.7319ZM206.317 21.7319C206.317 21.4557 206.417 21.2176 206.617 21.0176C206.817 20.8176 207.056 20.7176 207.332 20.7176C207.608 20.7176 207.846 20.8176 208.046 21.0176C208.246 21.2176 208.346 21.4557 208.346 21.7319C208.346 22.0081 208.246 22.2462 208.046 22.4462C207.846 22.6462 207.608 22.7462 207.332 22.7462C207.056 22.7462 206.817 22.6462 206.617 22.4462C206.417 22.2462 206.317 22.0081 206.317 21.7319Z" fill="#1F2A37"/>
<path d="M209.895 28.9605C210.105 28.9605 210.276 28.9557 210.41 28.9462C210.553 28.9367 210.667 28.9081 210.753 28.8605C210.838 28.8129 210.9 28.7462 210.938 28.6605C210.976 28.5653 210.995 28.4367 210.995 28.2748V25.5462H212.838V27.9748C212.838 28.2795 212.91 28.5176 213.053 28.6891C213.195 28.851 213.433 28.9367 213.767 28.9462C213.948 28.4319 214.195 27.9224 214.51 27.4176C214.833 26.9129 215.214 26.4653 215.653 26.0748C216.091 25.6748 216.576 25.351 217.11 25.1033C217.643 24.8557 218.21 24.7319 218.81 24.7319C219.791 24.7319 220.548 25.0224 221.081 25.6033C221.624 26.1843 221.895 26.9986 221.895 28.0462V28.9605H223.024C223.1 28.9605 223.172 28.97 223.238 28.9891C223.305 28.9986 223.362 29.0319 223.41 29.0891C223.467 29.1367 223.51 29.2129 223.538 29.3176C223.567 29.4224 223.581 29.5653 223.581 29.7462C223.581 30.07 223.534 30.2938 223.438 30.4177C223.353 30.5415 223.214 30.6034 223.024 30.6034H214.41C213.924 30.6034 213.51 30.5272 213.167 30.3748C212.833 30.2129 212.591 30.0415 212.438 29.8605C212.191 30.1938 211.862 30.4034 211.453 30.4891C211.043 30.5653 210.514 30.6034 209.867 30.6034H209.31C209.233 30.6034 209.162 30.5986 209.095 30.5891C209.029 30.57 208.972 30.5367 208.924 30.4891C208.867 30.4319 208.824 30.351 208.795 30.2462C208.767 30.1415 208.753 29.9986 208.753 29.8176C208.753 29.4938 208.8 29.27 208.895 29.1462C208.981 29.0224 209.119 28.9605 209.31 28.9605H209.895ZM220.053 28.9605V28.2891C220.053 27.8034 219.948 27.4034 219.738 27.0891C219.529 26.7748 219.167 26.6176 218.653 26.6176C218.348 26.6176 218.053 26.6843 217.767 26.8176C217.491 26.9414 217.229 27.1129 216.981 27.3319C216.743 27.5414 216.519 27.7891 216.31 28.0748C216.11 28.351 215.938 28.6462 215.795 28.9605H220.053Z" fill="#1F2A37"/>
<path d="M223.895 28.9605C224.219 28.9605 224.442 28.9129 224.566 28.8176C224.7 28.7129 224.766 28.4843 224.766 28.1319V24.9176H226.623V27.9748C226.623 28.3272 226.69 28.5795 226.823 28.7319C226.957 28.8843 227.252 28.9605 227.709 28.9605C227.785 28.9605 227.857 28.97 227.923 28.9891C227.99 28.9986 228.047 29.0319 228.095 29.0891C228.152 29.1367 228.195 29.2129 228.223 29.3176C228.252 29.4224 228.266 29.5653 228.266 29.7462C228.266 30.07 228.219 30.2938 228.123 30.4177C228.038 30.5415 227.9 30.6034 227.709 30.6034C227.433 30.6034 227.166 30.5605 226.909 30.4748C226.652 30.3796 226.438 30.1796 226.266 29.8748C226.152 30.0367 226.014 30.17 225.852 30.2748C225.69 30.37 225.519 30.4415 225.338 30.4891C225.157 30.5367 224.966 30.57 224.766 30.5891C224.576 30.5986 224.385 30.6034 224.195 30.6034H223.024C222.948 30.6034 222.876 30.5986 222.809 30.5891C222.742 30.57 222.685 30.5367 222.638 30.4891C222.581 30.4319 222.538 30.351 222.509 30.2462C222.481 30.1415 222.466 29.9986 222.466 29.8176C222.466 29.4938 222.514 29.27 222.609 29.1462C222.695 29.0224 222.834 28.9605 223.024 28.9605H223.895ZM224.666 22.4462C224.666 22.17 224.766 21.9319 224.966 21.7319C225.166 21.5319 225.404 21.4319 225.681 21.4319C225.957 21.4319 226.195 21.5319 226.395 21.7319C226.595 21.9319 226.695 22.17 226.695 22.4462C226.695 22.7224 226.595 22.9605 226.395 23.1605C226.195 23.3605 225.957 23.4605 225.681 23.4605C225.404 23.4605 225.166 23.3605 224.966 23.1605C224.766 22.9605 224.666 22.7224 224.666 22.4462Z" fill="#1F2A37"/>
<path d="M233.168 27.9462C233.168 27.8034 233.149 27.6605 233.111 27.5176C233.082 27.3748 233.03 27.251 232.954 27.1462C232.887 27.0319 232.792 26.9414 232.668 26.8748C232.554 26.7986 232.411 26.7605 232.24 26.7605C231.992 26.7605 231.735 26.8938 231.468 27.1605C231.201 27.4272 230.992 27.8986 230.84 28.5748C231.078 28.7176 231.301 28.8367 231.511 28.9319C231.73 29.0176 231.963 29.0605 232.211 29.0605C232.516 29.0605 232.749 28.9605 232.911 28.7605C233.082 28.551 233.168 28.2795 233.168 27.9462ZM228.454 28.9605C228.568 28.9605 228.706 28.8653 228.868 28.6748C229.04 28.4843 229.192 28.2081 229.325 27.8462C229.535 27.3034 229.759 26.8557 229.997 26.5033C230.244 26.1414 230.501 25.8557 230.768 25.6462C231.035 25.4272 231.301 25.2748 231.568 25.1891C231.835 25.1033 232.097 25.0605 232.354 25.0605C232.725 25.0605 233.073 25.1319 233.397 25.2748C233.721 25.4176 233.997 25.6176 234.225 25.8748C234.463 26.1319 234.649 26.4414 234.782 26.8034C234.916 27.1653 234.982 27.5605 234.982 27.9891C234.982 28.8462 234.773 29.5272 234.354 30.0319C233.935 30.5272 233.297 30.7748 232.44 30.7748C232.059 30.7748 231.673 30.7177 231.282 30.6034C230.892 30.4891 230.487 30.2938 230.068 30.0177C229.82 30.2938 229.568 30.4605 229.311 30.5177C229.054 30.5748 228.773 30.6034 228.468 30.6034H227.711C227.635 30.6034 227.563 30.5986 227.497 30.5891C227.43 30.57 227.373 30.5367 227.325 30.4891C227.268 30.4319 227.225 30.351 227.197 30.2462C227.168 30.1415 227.154 29.9986 227.154 29.8176C227.154 29.4938 227.201 29.27 227.297 29.1462C227.382 29.0224 227.52 28.9605 227.711 28.9605H228.454Z" fill="#1F2A37"/>
<path d="M49.1434 14.3384L40.3369 9.16919L31.6222 4L14.0093 14.3384L5.29365 19.6015V29.9399L14.0084 24.7707L22.8149 19.6015L31.6222 14.3384L40.3369 19.6015L49.1434 24.7707L57.8582 29.9399V19.6015L49.1434 14.3384Z" fill="#66CCFF"/>
<path d="M39.4167 21.3859V29.6568L32.4449 25.5218L39.4167 21.3859Z" fill="url(#paint0_linear_11764_8043)"/>
<path d="M14.9272 26.5621L21.899 30.6971L14.9272 34.8321V26.5621Z" fill="url(#paint1_linear_11764_8043)"/>
<path d="M29.9706 29.8452V36.5183L24.375 33.2287L29.9706 29.8452Z" fill="url(#paint2_linear_11764_8043)"/>
<path d="M56.301 47.3269V54L50.7054 50.6165L56.301 47.3269Z" fill="url(#paint3_linear_11764_8043)"/>
<path d="M41.8987 36.9865L47.4943 40.276L41.8987 43.5674V36.9865Z" fill="url(#paint4_linear_11764_8043)"/>
<path d="M17.4973 44.4153L23.0929 47.7049L17.4973 51.0884V44.4153Z" fill="url(#paint5_linear_11764_8043)"/>
<path d="M10.6137 40.2815V46.8606L5.01807 43.5711L10.6137 40.2815Z" fill="url(#paint6_linear_11764_8043)"/>
<path d="M49.144 14.3405V24.7728L40.341 19.6036L49.144 14.3405Z" fill="url(#paint7_linear_11764_8043)"/>
<path d="M31.6181 4L40.3346 9.16919L31.6181 14.3384V4Z" fill="url(#paint8_linear_11764_8043)"/>
<path d="M5.29365 19.6006L14.0084 24.7698L5.29365 29.9389V19.6006Z" fill="url(#paint9_linear_11764_8043)"/>
<path d="M14.0105 14.3405L22.817 19.6036L14.0105 24.7728V14.3405Z" fill="url(#paint10_linear_11764_8043)"/>
<path d="M30.7058 16.2216V24.4925L23.734 20.3575L30.7058 16.2216Z" fill="url(#paint11_linear_11764_8043)"/>
<path d="M21.899 21.3859V29.6568L14.9272 25.5218L21.899 21.3859Z" fill="url(#paint12_linear_11764_8043)"/>
<path d="M41.2516 21.3859L48.2235 25.5209L41.2516 29.6568V21.3859Z" fill="url(#paint13_linear_11764_8043)"/>
<path d="M13.1839 26.5621V34.833L6.12041 30.698L13.1839 26.5621Z" fill="url(#paint14_linear_11764_8043)"/>
<path d="M48.2295 26.5621V34.833L41.2576 30.698L48.2295 26.5621Z" fill="url(#paint15_linear_11764_8043)"/>
<path d="M57.0355 31.7264V39.9972L49.9685 35.8622L57.0355 31.7264Z" fill="url(#paint16_linear_11764_8043)"/>
<path d="M32.4449 16.2216L39.4167 20.3566L32.4449 24.4916V16.2216Z" fill="url(#paint17_linear_11764_8043)"/>
<path d="M6.12041 31.7264L13.1839 35.8614L6.12041 39.9972V31.7264Z" fill="url(#paint18_linear_11764_8043)"/>
<path d="M49.9685 26.5621L57.0355 30.698L49.9685 34.833V26.5621Z" fill="url(#paint19_linear_11764_8043)"/>
<path d="M23.734 21.3859L30.7058 25.5209L23.734 29.6568V21.3859Z" fill="url(#paint20_linear_11764_8043)"/>
<path d="M6.85131 47.3269L12.4469 50.6165L6.85131 54V47.3269Z" fill="url(#paint21_linear_11764_8043)"/>
<path d="M50.7054 40.2815L56.301 43.5711L50.7054 46.8606V40.2815Z" fill="url(#paint22_linear_11764_8043)"/>
<path d="M47.4943 42.5341V49.2072L41.8987 45.8237L47.4943 42.5341Z" fill="url(#paint23_linear_11764_8043)"/>
<path d="M38.7774 46.3923V52.9715L33.1818 49.681L38.7774 46.3923Z" fill="url(#paint24_linear_11764_8043)"/>
<path d="M24.375 36.9865L29.9706 40.276L24.375 43.5674V36.9865Z" fill="url(#paint25_linear_11764_8043)"/>
<path d="M21.2545 36.9865V43.5674L15.6581 40.276L21.2545 36.9865Z" fill="url(#paint26_linear_11764_8043)"/>
<path d="M33.1818 28.2516L38.7774 31.5411L33.1818 34.8307V28.2516Z" fill="url(#paint27_linear_11764_8043)"/>
<path d="M31.6238 4V14.3384L22.8173 9.16919L31.6238 4Z" fill="url(#paint28_linear_11764_8043)"/>
<path d="M22.817 9.16424V19.5966L14.0105 14.3334L22.817 9.16424Z" fill="url(#paint29_linear_11764_8043)"/>
<path d="M40.341 9.16424L49.1475 14.3334L40.341 19.5966V9.16424Z" fill="url(#paint30_linear_11764_8043)"/>
<path d="M40.3346 9.16424V19.5966L31.6181 14.3334L40.3346 9.16424Z" fill="url(#paint31_linear_11764_8043)"/>
<path d="M14.0093 14.3405V24.7728L5.29365 19.6036L14.0093 14.3405Z" fill="url(#paint32_linear_11764_8043)"/>
<path d="M57.8565 19.6006V29.9389L49.1418 24.7698L57.8565 19.6006Z" fill="url(#paint33_linear_11764_8043)"/>
<path d="M49.1418 14.3405V24.7728L57.8565 19.6036L49.1418 14.3405Z" fill="url(#paint34_linear_11764_8043)"/>
<path d="M22.817 9.16424L31.6238 14.3334L22.817 19.5966V9.16424Z" fill="url(#paint35_linear_11764_8043)"/>
<defs>
<linearGradient id="paint0_linear_11764_8043" x1="-54.8498" y1="237.25" x2="169.132" y2="-29.5923" gradientUnits="userSpaceOnUse">
<stop stop-color="#66CCFF"/>
<stop offset="0.5" stop-color="#6258A6"/>
<stop offset="0.99" stop-color="#273470"/>
</linearGradient>
<linearGradient id="paint1_linear_11764_8043" x1="-39.1034" y1="132.65" x2="184.828" y2="-134.14" gradientUnits="userSpaceOnUse">
<stop stop-color="#66CCFF"/>
<stop offset="0.5" stop-color="#6258A6"/>
<stop offset="0.99" stop-color="#273470"/>
</linearGradient>
<linearGradient id="paint2_linear_11764_8043" x1="-57.4389" y1="149.15" x2="165.808" y2="-115.509" gradientUnits="userSpaceOnUse">
<stop stop-color="#66CCFF"/>
<stop offset="0.5" stop-color="#6258A6"/>
<stop offset="0.99" stop-color="#273470"/>
</linearGradient>
<linearGradient id="paint3_linear_11764_8043" x1="-193.291" y1="31.3" x2="30.0611" y2="-233.365" gradientUnits="userSpaceOnUse">
<stop stop-color="#66CCFF"/>
<stop offset="0.5" stop-color="#6258A6"/>
<stop offset="0.99" stop-color="#273470"/>
</linearGradient>
<linearGradient id="paint4_linear_11764_8043" x1="-146.21" y1="113.65" x2="76.8687" y2="-154.529" gradientUnits="userSpaceOnUse">
<stop stop-color="#66CCFF"/>
<stop offset="0.5" stop-color="#6258A6"/>
<stop offset="0.99" stop-color="#273470"/>
</linearGradient>
<linearGradient id="paint5_linear_11764_8043" x1="-105.154" y1="-43.8" x2="118.198" y2="-308.465" gradientUnits="userSpaceOnUse">
<stop stop-color="#66CCFF"/>
<stop offset="0.5" stop-color="#6258A6"/>
<stop offset="0.99" stop-color="#273470"/>
</linearGradient>
<linearGradient id="paint6_linear_11764_8043" x1="-40.3716" y1="-25.4" x2="182.812" y2="-293.586" gradientUnits="userSpaceOnUse">
<stop stop-color="#66CCFF"/>
<stop offset="0.5" stop-color="#6258A6"/>
<stop offset="0.99" stop-color="#273470"/>
</linearGradient>
<linearGradient id="paint7_linear_11764_8043" x1="-38.258" y1="254.95" x2="139.039" y2="43.4215" gradientUnits="userSpaceOnUse">
<stop stop-color="#66CCFF"/>
<stop offset="0.5" stop-color="#6258A6"/>
<stop offset="0.99" stop-color="#273470"/>
</linearGradient>
<linearGradient id="paint8_linear_11764_8043" x1="-4.546" y1="295.5" x2="174.651" y2="82.0652" gradientUnits="userSpaceOnUse">
<stop stop-color="#66CCFF"/>
<stop offset="0.5" stop-color="#6258A6"/>
<stop offset="0.99" stop-color="#273470"/>
</linearGradient>
<linearGradient id="paint9_linear_11764_8043" x1="10.1436" y1="129.3" x2="189.236" y2="-84.1284" gradientUnits="userSpaceOnUse">
<stop stop-color="#66CCFF"/>
<stop offset="0.5" stop-color="#6258A6"/>
<stop offset="0.99" stop-color="#273470"/>
</linearGradient>
<linearGradient id="paint10_linear_11764_8043" x1="5.59931" y1="183.35" x2="182.846" y2="-28.1257" gradientUnits="userSpaceOnUse">
<stop stop-color="#66CCFF"/>
<stop offset="0.5" stop-color="#6258A6"/>
<stop offset="0.99" stop-color="#273470"/>
</linearGradient>
<linearGradient id="paint11_linear_11764_8043" x1="31.2268" y1="289.55" x2="31.2268" y2="13.6" gradientUnits="userSpaceOnUse">
<stop stop-color="#66CCFF"/>
<stop offset="0.5" stop-color="#6258A6"/>
<stop offset="0.99" stop-color="#273470"/>
</linearGradient>
<linearGradient id="paint12_linear_11764_8043" x1="31.491" y1="258.3" x2="31.491" y2="-17.65" gradientUnits="userSpaceOnUse">
<stop stop-color="#66CCFF"/>
<stop offset="0.5" stop-color="#6258A6"/>
<stop offset="0.99" stop-color="#273470"/>
</linearGradient>
<linearGradient id="paint13_linear_11764_8043" x1="31.2796" y1="258.3" x2="31.2796" y2="-17.65" gradientUnits="userSpaceOnUse">
<stop stop-color="#66CCFF"/>
<stop offset="0.5" stop-color="#6258A6"/>
<stop offset="0.99" stop-color="#273470"/>
</linearGradient>
<linearGradient id="paint14_linear_11764_8043" x1="31.491" y1="227.05" x2="31.491" y2="-48.9" gradientUnits="userSpaceOnUse">
<stop stop-color="#66CCFF"/>
<stop offset="0.5" stop-color="#6258A6"/>
<stop offset="0.99" stop-color="#273470"/>
</linearGradient>
<linearGradient id="paint15_linear_11764_8043" x1="31.2796" y1="227.05" x2="31.2796" y2="-48.9" gradientUnits="userSpaceOnUse">
<stop stop-color="#66CCFF"/>
<stop offset="0.5" stop-color="#6258A6"/>
<stop offset="0.99" stop-color="#273470"/>
</linearGradient>
<linearGradient id="paint16_linear_11764_8043" x1="31.3853" y1="195.8" x2="31.3853" y2="-80.15" gradientUnits="userSpaceOnUse">
<stop stop-color="#66CCFF"/>
<stop offset="0.5" stop-color="#6258A6"/>
<stop offset="0.99" stop-color="#273470"/>
</linearGradient>
<linearGradient id="paint17_linear_11764_8043" x1="31.5966" y1="289.55" x2="31.5966" y2="13.6" gradientUnits="userSpaceOnUse">
<stop stop-color="#66CCFF"/>
<stop offset="0.5" stop-color="#6258A6"/>
<stop offset="0.99" stop-color="#273470"/>
</linearGradient>
<linearGradient id="paint18_linear_11764_8043" x1="31.491" y1="195.8" x2="31.491" y2="-80.15" gradientUnits="userSpaceOnUse">
<stop stop-color="#66CCFF"/>
<stop offset="0.5" stop-color="#6258A6"/>
<stop offset="0.99" stop-color="#273470"/>
</linearGradient>
<linearGradient id="paint19_linear_11764_8043" x1="31.3853" y1="227.05" x2="31.3853" y2="-48.9" gradientUnits="userSpaceOnUse">
<stop stop-color="#66CCFF"/>
<stop offset="0.5" stop-color="#6258A6"/>
<stop offset="0.99" stop-color="#273470"/>
</linearGradient>
<linearGradient id="paint20_linear_11764_8043" x1="31.2268" y1="258.3" x2="31.2268" y2="-17.65" gradientUnits="userSpaceOnUse">
<stop stop-color="#66CCFF"/>
<stop offset="0.5" stop-color="#6258A6"/>
<stop offset="0.99" stop-color="#273470"/>
</linearGradient>
<linearGradient id="paint21_linear_11764_8043" x1="31.491" y1="55.95" x2="31.491" y2="-217.6" gradientUnits="userSpaceOnUse">
<stop stop-color="#66CCFF"/>
<stop offset="0.5" stop-color="#6258A6"/>
<stop offset="0.99" stop-color="#273470"/>
</linearGradient>
<linearGradient id="paint22_linear_11764_8043" x1="31.3324" y1="121" x2="31.3324" y2="-156.5" gradientUnits="userSpaceOnUse">
<stop stop-color="#66CCFF"/>
<stop offset="0.5" stop-color="#6258A6"/>
<stop offset="0.99" stop-color="#273470"/>
</linearGradient>
<linearGradient id="paint23_linear_11764_8043" x1="31.7552" y1="99" x2="31.7552" y2="-174.6" gradientUnits="userSpaceOnUse">
<stop stop-color="#66CCFF"/>
<stop offset="0.5" stop-color="#6258A6"/>
<stop offset="0.99" stop-color="#273470"/>
</linearGradient>
<linearGradient id="paint24_linear_11764_8043" x1="31.2268" y1="65.35" x2="31.2268" y2="-212.2" gradientUnits="userSpaceOnUse">
<stop stop-color="#66CCFF"/>
<stop offset="0.5" stop-color="#6258A6"/>
<stop offset="0.99" stop-color="#273470"/>
</linearGradient>
<linearGradient id="paint25_linear_11764_8043" x1="31.5966" y1="151.05" x2="31.5966" y2="-126.5" gradientUnits="userSpaceOnUse">
<stop stop-color="#66CCFF"/>
<stop offset="0.5" stop-color="#6258A6"/>
<stop offset="0.99" stop-color="#273470"/>
</linearGradient>
<linearGradient id="paint26_linear_11764_8043" x1="31.0682" y1="151.05" x2="31.0682" y2="-126.5" gradientUnits="userSpaceOnUse">
<stop stop-color="#66CCFF"/>
<stop offset="0.5" stop-color="#6258A6"/>
<stop offset="0.99" stop-color="#273470"/>
</linearGradient>
<linearGradient id="paint27_linear_11764_8043" x1="31.2268" y1="230.8" x2="31.2268" y2="-46.7" gradientUnits="userSpaceOnUse">
<stop stop-color="#66CCFF"/>
<stop offset="0.5" stop-color="#6258A6"/>
<stop offset="0.99" stop-color="#273470"/>
</linearGradient>
<linearGradient id="paint28_linear_11764_8043" x1="31.2796" y1="291.55" x2="31.2796" y2="70.75" gradientUnits="userSpaceOnUse">
<stop stop-color="#66CCFF"/>
<stop offset="0.5" stop-color="#6258A6"/>
<stop offset="0.99" stop-color="#273470"/>
</linearGradient>
<linearGradient id="paint29_linear_11764_8043" x1="31.491" y1="264.2" x2="31.491" y2="45.35" gradientUnits="userSpaceOnUse">
<stop stop-color="#66CCFF"/>
<stop offset="0.5" stop-color="#6258A6"/>
<stop offset="0.99" stop-color="#273470"/>
</linearGradient>
<linearGradient id="paint30_linear_11764_8043" x1="31.3853" y1="264.2" x2="31.3853" y2="45.4" gradientUnits="userSpaceOnUse">
<stop stop-color="#66CCFF"/>
<stop offset="0.5" stop-color="#6258A6"/>
<stop offset="0.99" stop-color="#273470"/>
</linearGradient>
<linearGradient id="paint31_linear_11764_8043" x1="31.3324" y1="264.2" x2="31.3324" y2="45.4" gradientUnits="userSpaceOnUse">
<stop stop-color="#66CCFF"/>
<stop offset="0.5" stop-color="#6258A6"/>
<stop offset="0.99" stop-color="#273470"/>
</linearGradient>
<linearGradient id="paint32_linear_11764_8043" x1="31.4381" y1="239.4" x2="31.4381" y2="20.6" gradientUnits="userSpaceOnUse">
<stop stop-color="#66CCFF"/>
<stop offset="0.5" stop-color="#6258A6"/>
<stop offset="0.99" stop-color="#273470"/>
</linearGradient>
<linearGradient id="paint33_linear_11764_8043" x1="31.4381" y1="216.1" x2="31.4381" y2="-4.7" gradientUnits="userSpaceOnUse">
<stop stop-color="#66CCFF"/>
<stop offset="0.5" stop-color="#6258A6"/>
<stop offset="0.99" stop-color="#273470"/>
</linearGradient>
<linearGradient id="paint34_linear_11764_8043" x1="31.4381" y1="239.4" x2="31.4381" y2="20.6" gradientUnits="userSpaceOnUse">
<stop stop-color="#66CCFF"/>
<stop offset="0.5" stop-color="#6258A6"/>
<stop offset="0.99" stop-color="#273470"/>
</linearGradient>
<linearGradient id="paint35_linear_11764_8043" x1="27.1943" y1="63.454" x2="27.1943" y2="17.8022" gradientUnits="userSpaceOnUse">
<stop stop-color="#66CCFF"/>
<stop offset="0.5" stop-color="#6258A6"/>
<stop offset="0.99" stop-color="#273470"/>
</linearGradient>
</defs>
</svg>
